%TF.GenerationSoftware,KiCad,Pcbnew,(5.1.10-1-10_14)*%
%TF.CreationDate,2021-09-29T22:20:09+09:00*%
%TF.ProjectId,seamal,7365616d-616c-42e6-9b69-6361645f7063,rev?*%
%TF.SameCoordinates,Original*%
%TF.FileFunction,Copper,L2,Bot*%
%TF.FilePolarity,Positive*%
%FSLAX46Y46*%
G04 Gerber Fmt 4.6, Leading zero omitted, Abs format (unit mm)*
G04 Created by KiCad (PCBNEW (5.1.10-1-10_14)) date 2021-09-29 22:20:09*
%MOMM*%
%LPD*%
G01*
G04 APERTURE LIST*
%TA.AperFunction,SMDPad,CuDef*%
%ADD10R,2.180000X1.720000*%
%TD*%
%TA.AperFunction,SMDPad,CuDef*%
%ADD11R,0.270000X1.399999*%
%TD*%
%TA.AperFunction,ComponentPad*%
%ADD12O,1.350000X1.350000*%
%TD*%
%TA.AperFunction,ComponentPad*%
%ADD13R,1.350000X1.350000*%
%TD*%
%TA.AperFunction,SMDPad,CuDef*%
%ADD14R,1.270000X0.760000*%
%TD*%
%TA.AperFunction,ComponentPad*%
%ADD15C,1.700000*%
%TD*%
%TA.AperFunction,ComponentPad*%
%ADD16O,1.700000X1.700000*%
%TD*%
%TA.AperFunction,ComponentPad*%
%ADD17R,1.700000X1.700000*%
%TD*%
%TA.AperFunction,ViaPad*%
%ADD18C,0.800000*%
%TD*%
%TA.AperFunction,Conductor*%
%ADD19C,0.250000*%
%TD*%
%TA.AperFunction,Conductor*%
%ADD20C,0.200000*%
%TD*%
G04 APERTURE END LIST*
D10*
%TO.P,U3,EPAD*%
%TO.N,N/C*%
X142849600Y-92075000D03*
D11*
%TO.P,U3,10*%
%TO.N,I2C_SCL*%
X141849599Y-94249999D03*
%TO.P,U3,9*%
%TO.N,I2C_SDA*%
X142349601Y-94249999D03*
%TO.P,U3,8*%
%TO.N,Net-(U3-Pad8)*%
X142849600Y-94249999D03*
%TO.P,U3,7*%
%TO.N,Net-(U3-Pad7)*%
X143349599Y-94249999D03*
%TO.P,U3,6*%
%TO.N,Net-(U3-Pad6)*%
X143849601Y-94249999D03*
%TO.P,U3,5*%
%TO.N,GND*%
X143849601Y-89900001D03*
%TO.P,U3,4*%
%TO.N,+3V8*%
X143349599Y-89900001D03*
%TO.P,U3,3*%
%TO.N,OUT1*%
X142849600Y-89900001D03*
%TO.P,U3,2*%
%TO.N,INSENSE*%
X142349601Y-89900001D03*
%TO.P,U3,1*%
%TO.N,OUT2*%
X141849599Y-89900001D03*
%TD*%
%TO.P,Motor,2*%
%TO.N,OUT1*%
%TA.AperFunction,SMDPad,CuDef*%
G36*
G01*
X150107600Y-85794001D02*
X150107600Y-84893999D01*
G75*
G02*
X150357599Y-84644000I249999J0D01*
G01*
X151057601Y-84644000D01*
G75*
G02*
X151307600Y-84893999I0J-249999D01*
G01*
X151307600Y-85794001D01*
G75*
G02*
X151057601Y-86044000I-249999J0D01*
G01*
X150357599Y-86044000D01*
G75*
G02*
X150107600Y-85794001I0J249999D01*
G01*
G37*
%TD.AperFunction*%
%TO.P,Motor,1*%
%TO.N,OUT2*%
%TA.AperFunction,SMDPad,CuDef*%
G36*
G01*
X148107600Y-85794001D02*
X148107600Y-84893999D01*
G75*
G02*
X148357599Y-84644000I249999J0D01*
G01*
X149057601Y-84644000D01*
G75*
G02*
X149307600Y-84893999I0J-249999D01*
G01*
X149307600Y-85794001D01*
G75*
G02*
X149057601Y-86044000I-249999J0D01*
G01*
X148357599Y-86044000D01*
G75*
G02*
X148107600Y-85794001I0J249999D01*
G01*
G37*
%TD.AperFunction*%
%TD*%
%TO.P,BT1,2*%
%TO.N,GND*%
%TA.AperFunction,SMDPad,CuDef*%
G36*
G01*
X149815600Y-87738799D02*
X149815600Y-88638801D01*
G75*
G02*
X149565601Y-88888800I-249999J0D01*
G01*
X148865599Y-88888800D01*
G75*
G02*
X148615600Y-88638801I0J249999D01*
G01*
X148615600Y-87738799D01*
G75*
G02*
X148865599Y-87488800I249999J0D01*
G01*
X149565601Y-87488800D01*
G75*
G02*
X149815600Y-87738799I0J-249999D01*
G01*
G37*
%TD.AperFunction*%
%TO.P,BT1,1*%
%TO.N,Net-(BT1-Pad1)*%
%TA.AperFunction,SMDPad,CuDef*%
G36*
G01*
X151815600Y-87738799D02*
X151815600Y-88638801D01*
G75*
G02*
X151565601Y-88888800I-249999J0D01*
G01*
X150865599Y-88888800D01*
G75*
G02*
X150615600Y-88638801I0J249999D01*
G01*
X150615600Y-87738799D01*
G75*
G02*
X150865599Y-87488800I249999J0D01*
G01*
X151565601Y-87488800D01*
G75*
G02*
X151815600Y-87738799I0J-249999D01*
G01*
G37*
%TD.AperFunction*%
%TD*%
D12*
%TO.P,J3,2*%
%TO.N,GND*%
X150622000Y-104806500D03*
D13*
%TO.P,J3,1*%
%TO.N,+3V8*%
X150622000Y-102806500D03*
%TD*%
D14*
%TO.P,SW2,1*%
%TO.N,GND*%
X145948400Y-85826600D03*
%TO.P,SW2,3*%
%TO.N,PB1*%
X138328400Y-87096600D03*
%TO.P,SW2,2*%
%TO.N,GND*%
X145948400Y-87096600D03*
%TO.P,SW2,4*%
%TO.N,PB0*%
X138328400Y-85826600D03*
%TD*%
%TO.P,U1,32*%
%TO.N,GND*%
%TA.AperFunction,SMDPad,CuDef*%
G36*
G01*
X145544000Y-95784000D02*
X145544000Y-97034000D01*
G75*
G02*
X145419000Y-97159000I-125000J0D01*
G01*
X145169000Y-97159000D01*
G75*
G02*
X145044000Y-97034000I0J125000D01*
G01*
X145044000Y-95784000D01*
G75*
G02*
X145169000Y-95659000I125000J0D01*
G01*
X145419000Y-95659000D01*
G75*
G02*
X145544000Y-95784000I0J-125000D01*
G01*
G37*
%TD.AperFunction*%
%TO.P,U1,31*%
%TO.N,Net-(R1-Pad2)*%
%TA.AperFunction,SMDPad,CuDef*%
G36*
G01*
X144744000Y-95784000D02*
X144744000Y-97034000D01*
G75*
G02*
X144619000Y-97159000I-125000J0D01*
G01*
X144369000Y-97159000D01*
G75*
G02*
X144244000Y-97034000I0J125000D01*
G01*
X144244000Y-95784000D01*
G75*
G02*
X144369000Y-95659000I125000J0D01*
G01*
X144619000Y-95659000D01*
G75*
G02*
X144744000Y-95784000I0J-125000D01*
G01*
G37*
%TD.AperFunction*%
%TO.P,U1,30*%
%TO.N,I2C_SDA*%
%TA.AperFunction,SMDPad,CuDef*%
G36*
G01*
X143944000Y-95784000D02*
X143944000Y-97034000D01*
G75*
G02*
X143819000Y-97159000I-125000J0D01*
G01*
X143569000Y-97159000D01*
G75*
G02*
X143444000Y-97034000I0J125000D01*
G01*
X143444000Y-95784000D01*
G75*
G02*
X143569000Y-95659000I125000J0D01*
G01*
X143819000Y-95659000D01*
G75*
G02*
X143944000Y-95784000I0J-125000D01*
G01*
G37*
%TD.AperFunction*%
%TO.P,U1,29*%
%TO.N,I2C_SCL*%
%TA.AperFunction,SMDPad,CuDef*%
G36*
G01*
X143144000Y-95784000D02*
X143144000Y-97034000D01*
G75*
G02*
X143019000Y-97159000I-125000J0D01*
G01*
X142769000Y-97159000D01*
G75*
G02*
X142644000Y-97034000I0J125000D01*
G01*
X142644000Y-95784000D01*
G75*
G02*
X142769000Y-95659000I125000J0D01*
G01*
X143019000Y-95659000D01*
G75*
G02*
X143144000Y-95784000I0J-125000D01*
G01*
G37*
%TD.AperFunction*%
%TO.P,U1,28*%
%TO.N,Net-(U1-Pad28)*%
%TA.AperFunction,SMDPad,CuDef*%
G36*
G01*
X142344000Y-95784000D02*
X142344000Y-97034000D01*
G75*
G02*
X142219000Y-97159000I-125000J0D01*
G01*
X141969000Y-97159000D01*
G75*
G02*
X141844000Y-97034000I0J125000D01*
G01*
X141844000Y-95784000D01*
G75*
G02*
X141969000Y-95659000I125000J0D01*
G01*
X142219000Y-95659000D01*
G75*
G02*
X142344000Y-95784000I0J-125000D01*
G01*
G37*
%TD.AperFunction*%
%TO.P,U1,27*%
%TO.N,Net-(U1-Pad27)*%
%TA.AperFunction,SMDPad,CuDef*%
G36*
G01*
X141544000Y-95784000D02*
X141544000Y-97034000D01*
G75*
G02*
X141419000Y-97159000I-125000J0D01*
G01*
X141169000Y-97159000D01*
G75*
G02*
X141044000Y-97034000I0J125000D01*
G01*
X141044000Y-95784000D01*
G75*
G02*
X141169000Y-95659000I125000J0D01*
G01*
X141419000Y-95659000D01*
G75*
G02*
X141544000Y-95784000I0J-125000D01*
G01*
G37*
%TD.AperFunction*%
%TO.P,U1,26*%
%TO.N,LED1*%
%TA.AperFunction,SMDPad,CuDef*%
G36*
G01*
X140744000Y-95784000D02*
X140744000Y-97034000D01*
G75*
G02*
X140619000Y-97159000I-125000J0D01*
G01*
X140369000Y-97159000D01*
G75*
G02*
X140244000Y-97034000I0J125000D01*
G01*
X140244000Y-95784000D01*
G75*
G02*
X140369000Y-95659000I125000J0D01*
G01*
X140619000Y-95659000D01*
G75*
G02*
X140744000Y-95784000I0J-125000D01*
G01*
G37*
%TD.AperFunction*%
%TO.P,U1,25*%
%TO.N,RX*%
%TA.AperFunction,SMDPad,CuDef*%
G36*
G01*
X139944000Y-95784000D02*
X139944000Y-97034000D01*
G75*
G02*
X139819000Y-97159000I-125000J0D01*
G01*
X139569000Y-97159000D01*
G75*
G02*
X139444000Y-97034000I0J125000D01*
G01*
X139444000Y-95784000D01*
G75*
G02*
X139569000Y-95659000I125000J0D01*
G01*
X139819000Y-95659000D01*
G75*
G02*
X139944000Y-95784000I0J-125000D01*
G01*
G37*
%TD.AperFunction*%
%TO.P,U1,24*%
%TO.N,SWCLK*%
%TA.AperFunction,SMDPad,CuDef*%
G36*
G01*
X139069000Y-97659000D02*
X139069000Y-97909000D01*
G75*
G02*
X138944000Y-98034000I-125000J0D01*
G01*
X137694000Y-98034000D01*
G75*
G02*
X137569000Y-97909000I0J125000D01*
G01*
X137569000Y-97659000D01*
G75*
G02*
X137694000Y-97534000I125000J0D01*
G01*
X138944000Y-97534000D01*
G75*
G02*
X139069000Y-97659000I0J-125000D01*
G01*
G37*
%TD.AperFunction*%
%TO.P,U1,23*%
%TO.N,SWDIO*%
%TA.AperFunction,SMDPad,CuDef*%
G36*
G01*
X139069000Y-98459000D02*
X139069000Y-98709000D01*
G75*
G02*
X138944000Y-98834000I-125000J0D01*
G01*
X137694000Y-98834000D01*
G75*
G02*
X137569000Y-98709000I0J125000D01*
G01*
X137569000Y-98459000D01*
G75*
G02*
X137694000Y-98334000I125000J0D01*
G01*
X138944000Y-98334000D01*
G75*
G02*
X139069000Y-98459000I0J-125000D01*
G01*
G37*
%TD.AperFunction*%
%TO.P,U1,22*%
%TO.N,Net-(U1-Pad22)*%
%TA.AperFunction,SMDPad,CuDef*%
G36*
G01*
X139069000Y-99259000D02*
X139069000Y-99509000D01*
G75*
G02*
X138944000Y-99634000I-125000J0D01*
G01*
X137694000Y-99634000D01*
G75*
G02*
X137569000Y-99509000I0J125000D01*
G01*
X137569000Y-99259000D01*
G75*
G02*
X137694000Y-99134000I125000J0D01*
G01*
X138944000Y-99134000D01*
G75*
G02*
X139069000Y-99259000I0J-125000D01*
G01*
G37*
%TD.AperFunction*%
%TO.P,U1,21*%
%TO.N,SPI_CS*%
%TA.AperFunction,SMDPad,CuDef*%
G36*
G01*
X139069000Y-100059000D02*
X139069000Y-100309000D01*
G75*
G02*
X138944000Y-100434000I-125000J0D01*
G01*
X137694000Y-100434000D01*
G75*
G02*
X137569000Y-100309000I0J125000D01*
G01*
X137569000Y-100059000D01*
G75*
G02*
X137694000Y-99934000I125000J0D01*
G01*
X138944000Y-99934000D01*
G75*
G02*
X139069000Y-100059000I0J-125000D01*
G01*
G37*
%TD.AperFunction*%
%TO.P,U1,20*%
%TO.N,Net-(U1-Pad20)*%
%TA.AperFunction,SMDPad,CuDef*%
G36*
G01*
X139069000Y-100859000D02*
X139069000Y-101109000D01*
G75*
G02*
X138944000Y-101234000I-125000J0D01*
G01*
X137694000Y-101234000D01*
G75*
G02*
X137569000Y-101109000I0J125000D01*
G01*
X137569000Y-100859000D01*
G75*
G02*
X137694000Y-100734000I125000J0D01*
G01*
X138944000Y-100734000D01*
G75*
G02*
X139069000Y-100859000I0J-125000D01*
G01*
G37*
%TD.AperFunction*%
%TO.P,U1,19*%
%TO.N,Net-(U1-Pad19)*%
%TA.AperFunction,SMDPad,CuDef*%
G36*
G01*
X139069000Y-101659000D02*
X139069000Y-101909000D01*
G75*
G02*
X138944000Y-102034000I-125000J0D01*
G01*
X137694000Y-102034000D01*
G75*
G02*
X137569000Y-101909000I0J125000D01*
G01*
X137569000Y-101659000D01*
G75*
G02*
X137694000Y-101534000I125000J0D01*
G01*
X138944000Y-101534000D01*
G75*
G02*
X139069000Y-101659000I0J-125000D01*
G01*
G37*
%TD.AperFunction*%
%TO.P,U1,18*%
%TO.N,Net-(U1-Pad18)*%
%TA.AperFunction,SMDPad,CuDef*%
G36*
G01*
X139069000Y-102459000D02*
X139069000Y-102709000D01*
G75*
G02*
X138944000Y-102834000I-125000J0D01*
G01*
X137694000Y-102834000D01*
G75*
G02*
X137569000Y-102709000I0J125000D01*
G01*
X137569000Y-102459000D01*
G75*
G02*
X137694000Y-102334000I125000J0D01*
G01*
X138944000Y-102334000D01*
G75*
G02*
X139069000Y-102459000I0J-125000D01*
G01*
G37*
%TD.AperFunction*%
%TO.P,U1,17*%
%TO.N,Net-(U1-Pad17)*%
%TA.AperFunction,SMDPad,CuDef*%
G36*
G01*
X139069000Y-103259000D02*
X139069000Y-103509000D01*
G75*
G02*
X138944000Y-103634000I-125000J0D01*
G01*
X137694000Y-103634000D01*
G75*
G02*
X137569000Y-103509000I0J125000D01*
G01*
X137569000Y-103259000D01*
G75*
G02*
X137694000Y-103134000I125000J0D01*
G01*
X138944000Y-103134000D01*
G75*
G02*
X139069000Y-103259000I0J-125000D01*
G01*
G37*
%TD.AperFunction*%
%TO.P,U1,16*%
%TO.N,GND*%
%TA.AperFunction,SMDPad,CuDef*%
G36*
G01*
X139944000Y-104134000D02*
X139944000Y-105384000D01*
G75*
G02*
X139819000Y-105509000I-125000J0D01*
G01*
X139569000Y-105509000D01*
G75*
G02*
X139444000Y-105384000I0J125000D01*
G01*
X139444000Y-104134000D01*
G75*
G02*
X139569000Y-104009000I125000J0D01*
G01*
X139819000Y-104009000D01*
G75*
G02*
X139944000Y-104134000I0J-125000D01*
G01*
G37*
%TD.AperFunction*%
%TO.P,U1,15*%
%TO.N,PB1*%
%TA.AperFunction,SMDPad,CuDef*%
G36*
G01*
X140744000Y-104134000D02*
X140744000Y-105384000D01*
G75*
G02*
X140619000Y-105509000I-125000J0D01*
G01*
X140369000Y-105509000D01*
G75*
G02*
X140244000Y-105384000I0J125000D01*
G01*
X140244000Y-104134000D01*
G75*
G02*
X140369000Y-104009000I125000J0D01*
G01*
X140619000Y-104009000D01*
G75*
G02*
X140744000Y-104134000I0J-125000D01*
G01*
G37*
%TD.AperFunction*%
%TO.P,U1,14*%
%TO.N,PB0*%
%TA.AperFunction,SMDPad,CuDef*%
G36*
G01*
X141544000Y-104134000D02*
X141544000Y-105384000D01*
G75*
G02*
X141419000Y-105509000I-125000J0D01*
G01*
X141169000Y-105509000D01*
G75*
G02*
X141044000Y-105384000I0J125000D01*
G01*
X141044000Y-104134000D01*
G75*
G02*
X141169000Y-104009000I125000J0D01*
G01*
X141419000Y-104009000D01*
G75*
G02*
X141544000Y-104134000I0J-125000D01*
G01*
G37*
%TD.AperFunction*%
%TO.P,U1,13*%
%TO.N,SPI_MOSI*%
%TA.AperFunction,SMDPad,CuDef*%
G36*
G01*
X142344000Y-104134000D02*
X142344000Y-105384000D01*
G75*
G02*
X142219000Y-105509000I-125000J0D01*
G01*
X141969000Y-105509000D01*
G75*
G02*
X141844000Y-105384000I0J125000D01*
G01*
X141844000Y-104134000D01*
G75*
G02*
X141969000Y-104009000I125000J0D01*
G01*
X142219000Y-104009000D01*
G75*
G02*
X142344000Y-104134000I0J-125000D01*
G01*
G37*
%TD.AperFunction*%
%TO.P,U1,12*%
%TO.N,SPI_MISO*%
%TA.AperFunction,SMDPad,CuDef*%
G36*
G01*
X143144000Y-104134000D02*
X143144000Y-105384000D01*
G75*
G02*
X143019000Y-105509000I-125000J0D01*
G01*
X142769000Y-105509000D01*
G75*
G02*
X142644000Y-105384000I0J125000D01*
G01*
X142644000Y-104134000D01*
G75*
G02*
X142769000Y-104009000I125000J0D01*
G01*
X143019000Y-104009000D01*
G75*
G02*
X143144000Y-104134000I0J-125000D01*
G01*
G37*
%TD.AperFunction*%
%TO.P,U1,11*%
%TO.N,SPI_SCLK*%
%TA.AperFunction,SMDPad,CuDef*%
G36*
G01*
X143944000Y-104134000D02*
X143944000Y-105384000D01*
G75*
G02*
X143819000Y-105509000I-125000J0D01*
G01*
X143569000Y-105509000D01*
G75*
G02*
X143444000Y-105384000I0J125000D01*
G01*
X143444000Y-104134000D01*
G75*
G02*
X143569000Y-104009000I125000J0D01*
G01*
X143819000Y-104009000D01*
G75*
G02*
X143944000Y-104134000I0J-125000D01*
G01*
G37*
%TD.AperFunction*%
%TO.P,U1,10*%
%TO.N,Net-(U1-Pad10)*%
%TA.AperFunction,SMDPad,CuDef*%
G36*
G01*
X144744000Y-104134000D02*
X144744000Y-105384000D01*
G75*
G02*
X144619000Y-105509000I-125000J0D01*
G01*
X144369000Y-105509000D01*
G75*
G02*
X144244000Y-105384000I0J125000D01*
G01*
X144244000Y-104134000D01*
G75*
G02*
X144369000Y-104009000I125000J0D01*
G01*
X144619000Y-104009000D01*
G75*
G02*
X144744000Y-104134000I0J-125000D01*
G01*
G37*
%TD.AperFunction*%
%TO.P,U1,9*%
%TO.N,Net-(U1-Pad9)*%
%TA.AperFunction,SMDPad,CuDef*%
G36*
G01*
X145544000Y-104134000D02*
X145544000Y-105384000D01*
G75*
G02*
X145419000Y-105509000I-125000J0D01*
G01*
X145169000Y-105509000D01*
G75*
G02*
X145044000Y-105384000I0J125000D01*
G01*
X145044000Y-104134000D01*
G75*
G02*
X145169000Y-104009000I125000J0D01*
G01*
X145419000Y-104009000D01*
G75*
G02*
X145544000Y-104134000I0J-125000D01*
G01*
G37*
%TD.AperFunction*%
%TO.P,U1,8*%
%TO.N,TX*%
%TA.AperFunction,SMDPad,CuDef*%
G36*
G01*
X147419000Y-103259000D02*
X147419000Y-103509000D01*
G75*
G02*
X147294000Y-103634000I-125000J0D01*
G01*
X146044000Y-103634000D01*
G75*
G02*
X145919000Y-103509000I0J125000D01*
G01*
X145919000Y-103259000D01*
G75*
G02*
X146044000Y-103134000I125000J0D01*
G01*
X147294000Y-103134000D01*
G75*
G02*
X147419000Y-103259000I0J-125000D01*
G01*
G37*
%TD.AperFunction*%
%TO.P,U1,7*%
%TO.N,Net-(U1-Pad7)*%
%TA.AperFunction,SMDPad,CuDef*%
G36*
G01*
X147419000Y-102459000D02*
X147419000Y-102709000D01*
G75*
G02*
X147294000Y-102834000I-125000J0D01*
G01*
X146044000Y-102834000D01*
G75*
G02*
X145919000Y-102709000I0J125000D01*
G01*
X145919000Y-102459000D01*
G75*
G02*
X146044000Y-102334000I125000J0D01*
G01*
X147294000Y-102334000D01*
G75*
G02*
X147419000Y-102459000I0J-125000D01*
G01*
G37*
%TD.AperFunction*%
%TO.P,U1,6*%
%TO.N,Net-(U1-Pad6)*%
%TA.AperFunction,SMDPad,CuDef*%
G36*
G01*
X147419000Y-101659000D02*
X147419000Y-101909000D01*
G75*
G02*
X147294000Y-102034000I-125000J0D01*
G01*
X146044000Y-102034000D01*
G75*
G02*
X145919000Y-101909000I0J125000D01*
G01*
X145919000Y-101659000D01*
G75*
G02*
X146044000Y-101534000I125000J0D01*
G01*
X147294000Y-101534000D01*
G75*
G02*
X147419000Y-101659000I0J-125000D01*
G01*
G37*
%TD.AperFunction*%
%TO.P,U1,5*%
%TO.N,+3V8*%
%TA.AperFunction,SMDPad,CuDef*%
G36*
G01*
X147419000Y-100859000D02*
X147419000Y-101109000D01*
G75*
G02*
X147294000Y-101234000I-125000J0D01*
G01*
X146044000Y-101234000D01*
G75*
G02*
X145919000Y-101109000I0J125000D01*
G01*
X145919000Y-100859000D01*
G75*
G02*
X146044000Y-100734000I125000J0D01*
G01*
X147294000Y-100734000D01*
G75*
G02*
X147419000Y-100859000I0J-125000D01*
G01*
G37*
%TD.AperFunction*%
%TO.P,U1,4*%
%TO.N,NRST*%
%TA.AperFunction,SMDPad,CuDef*%
G36*
G01*
X147419000Y-100059000D02*
X147419000Y-100309000D01*
G75*
G02*
X147294000Y-100434000I-125000J0D01*
G01*
X146044000Y-100434000D01*
G75*
G02*
X145919000Y-100309000I0J125000D01*
G01*
X145919000Y-100059000D01*
G75*
G02*
X146044000Y-99934000I125000J0D01*
G01*
X147294000Y-99934000D01*
G75*
G02*
X147419000Y-100059000I0J-125000D01*
G01*
G37*
%TD.AperFunction*%
%TO.P,U1,3*%
%TO.N,Net-(U1-Pad3)*%
%TA.AperFunction,SMDPad,CuDef*%
G36*
G01*
X147419000Y-99259000D02*
X147419000Y-99509000D01*
G75*
G02*
X147294000Y-99634000I-125000J0D01*
G01*
X146044000Y-99634000D01*
G75*
G02*
X145919000Y-99509000I0J125000D01*
G01*
X145919000Y-99259000D01*
G75*
G02*
X146044000Y-99134000I125000J0D01*
G01*
X147294000Y-99134000D01*
G75*
G02*
X147419000Y-99259000I0J-125000D01*
G01*
G37*
%TD.AperFunction*%
%TO.P,U1,2*%
%TO.N,Net-(U1-Pad2)*%
%TA.AperFunction,SMDPad,CuDef*%
G36*
G01*
X147419000Y-98459000D02*
X147419000Y-98709000D01*
G75*
G02*
X147294000Y-98834000I-125000J0D01*
G01*
X146044000Y-98834000D01*
G75*
G02*
X145919000Y-98709000I0J125000D01*
G01*
X145919000Y-98459000D01*
G75*
G02*
X146044000Y-98334000I125000J0D01*
G01*
X147294000Y-98334000D01*
G75*
G02*
X147419000Y-98459000I0J-125000D01*
G01*
G37*
%TD.AperFunction*%
%TO.P,U1,1*%
%TO.N,+3V8*%
%TA.AperFunction,SMDPad,CuDef*%
G36*
G01*
X147419000Y-97659000D02*
X147419000Y-97909000D01*
G75*
G02*
X147294000Y-98034000I-125000J0D01*
G01*
X146044000Y-98034000D01*
G75*
G02*
X145919000Y-97909000I0J125000D01*
G01*
X145919000Y-97659000D01*
G75*
G02*
X146044000Y-97534000I125000J0D01*
G01*
X147294000Y-97534000D01*
G75*
G02*
X147419000Y-97659000I0J-125000D01*
G01*
G37*
%TD.AperFunction*%
%TD*%
D12*
%TO.P,J2,3*%
%TO.N,NRST*%
X150622000Y-99758000D03*
%TO.P,J2,2*%
%TO.N,SWDIO*%
X150622000Y-97758000D03*
D13*
%TO.P,J2,1*%
%TO.N,SWCLK*%
X150622000Y-95758000D03*
%TD*%
D12*
%TO.P,J1,2*%
%TO.N,RX*%
X150622000Y-90773500D03*
D13*
%TO.P,J1,1*%
%TO.N,TX*%
X150622000Y-92773500D03*
%TD*%
D15*
%TO.P,U2,6*%
%TO.N,+3V8*%
X146227800Y-89014300D03*
%TO.P,U2,5*%
%TO.N,Net-(U2-Pad5)*%
X146227800Y-91554300D03*
%TO.P,U2,4*%
%TO.N,+3V8*%
X146227800Y-94094300D03*
D16*
%TO.P,U2,3*%
%TO.N,I2C_SCL*%
X138597800Y-93994300D03*
%TO.P,U2,2*%
%TO.N,I2C_SDA*%
X138597800Y-91454300D03*
D17*
%TO.P,U2,1*%
%TO.N,GND*%
X138597800Y-88914300D03*
%TD*%
D18*
%TO.N,GND*%
X146755646Y-96148600D03*
%TO.N,Net-(R1-Pad2)*%
X144668707Y-95158093D03*
%TO.N,I2C_SCL*%
X140830509Y-97745116D03*
%TO.N,SWDIO*%
X148031200Y-98704400D03*
X143717783Y-99603902D03*
%TO.N,+3V8*%
X147955000Y-97764600D03*
X145034000Y-99421010D03*
%TO.N,RX*%
X139129499Y-96938518D03*
X148564600Y-94691200D03*
%TO.N,TX*%
X150246999Y-101574600D03*
%TO.N,SPI_MOSI*%
X142435258Y-102905000D03*
%TO.N,SPI_MISO*%
X144221200Y-100803903D03*
%TO.N,SPI_SCLK*%
X140432725Y-99978275D03*
%TO.N,SPI_CS*%
X143103600Y-100888800D03*
%TO.N,INSENSE*%
X140411200Y-90220800D03*
%TO.N,OUT1*%
X147548600Y-86055200D03*
X147345400Y-87786502D03*
%TO.N,OUT2*%
X143484600Y-85166200D03*
X140552400Y-91409977D03*
%TO.N,LED1*%
X138455400Y-96342200D03*
%TO.N,PB0*%
X143433800Y-86207600D03*
X149021800Y-103505000D03*
X141364903Y-103366503D03*
%TO.N,PB1*%
X142678953Y-86887902D03*
X143035258Y-101955600D03*
%TO.N,Net-(BT1-Pad1)*%
X151028400Y-86817200D03*
%TD*%
D19*
%TO.N,GND*%
X145948400Y-85826600D02*
X145948400Y-87096600D01*
X143543257Y-87096600D02*
X142214866Y-88424991D01*
X145948400Y-87096600D02*
X143543257Y-87096600D01*
X148088301Y-87061501D02*
X149215600Y-88188800D01*
X146997399Y-87061501D02*
X148088301Y-87061501D01*
X146962300Y-87096600D02*
X146997399Y-87061501D01*
X145948400Y-87096600D02*
X146962300Y-87096600D01*
X139087109Y-88424991D02*
X138597800Y-88914300D01*
X142214866Y-88424991D02*
X139087109Y-88424991D01*
X144234601Y-89900001D02*
X143849601Y-89900001D01*
X144602789Y-90268189D02*
X144234601Y-89900001D01*
X144602789Y-94208291D02*
X144602789Y-90268189D01*
X145663799Y-95269301D02*
X144602789Y-94208291D01*
X146791801Y-95269301D02*
X145663799Y-95269301D01*
X149215600Y-92845502D02*
X146791801Y-95269301D01*
X149215600Y-88188800D02*
X149215600Y-92845502D01*
X145294000Y-95639100D02*
X145663799Y-95269301D01*
X145294000Y-96409000D02*
X145294000Y-95639100D01*
D20*
X139894010Y-105709010D02*
X149719490Y-105709010D01*
X149719490Y-105709010D02*
X150622000Y-104806500D01*
X139694000Y-105509000D02*
X139894010Y-105709010D01*
X139694000Y-104759000D02*
X139694000Y-105509000D01*
X151497001Y-94922999D02*
X151497001Y-103931499D01*
X151457001Y-94882999D02*
X151497001Y-94922999D01*
X151497001Y-103931499D02*
X150622000Y-104806500D01*
X149329693Y-94882999D02*
X151457001Y-94882999D01*
X148052446Y-96160246D02*
X149329693Y-94882999D01*
X145542754Y-96160246D02*
X148052446Y-96160246D01*
X145294000Y-96409000D02*
X145542754Y-96160246D01*
X145554400Y-96148600D02*
X145294000Y-96409000D01*
X146755646Y-96148600D02*
X145554400Y-96148600D01*
%TO.N,Net-(R1-Pad2)*%
X144494000Y-95332800D02*
X144668707Y-95158093D01*
X144494000Y-96409000D02*
X144494000Y-95332800D01*
D19*
%TO.N,I2C_SDA*%
X142349601Y-95170002D02*
X142349601Y-94249999D01*
X143310000Y-95275000D02*
X142454599Y-95275000D01*
X143694000Y-95659000D02*
X143310000Y-95275000D01*
X143694000Y-96409000D02*
X143694000Y-95659000D01*
D20*
X142349601Y-95149998D02*
X142349599Y-95150000D01*
X142349601Y-94249999D02*
X142349601Y-95149998D01*
X138597800Y-92193202D02*
X138597800Y-91454300D01*
X138597800Y-91784602D02*
X138597800Y-91454300D01*
X142349601Y-93350000D02*
X142234602Y-93235001D01*
X142349601Y-94249999D02*
X142349601Y-93350000D01*
X142454599Y-95254996D02*
X142349601Y-95149998D01*
X142454599Y-95275000D02*
X142454599Y-95254996D01*
X142234602Y-93235001D02*
X139911599Y-93235001D01*
X138597800Y-91921202D02*
X138597800Y-91454300D01*
X139911599Y-93235001D02*
X138597800Y-91921202D01*
%TO.N,I2C_SCL*%
X141593900Y-93994300D02*
X141849599Y-94249999D01*
X138597800Y-93994300D02*
X141593900Y-93994300D01*
X142307884Y-97745116D02*
X140830509Y-97745116D01*
X142894000Y-97159000D02*
X142307884Y-97745116D01*
X142894000Y-96409000D02*
X142894000Y-97159000D01*
D19*
%TO.N,SWCLK*%
X150622000Y-95758000D02*
X149631400Y-96748600D01*
X138521639Y-97986639D02*
X138319000Y-97784000D01*
X147343294Y-96748600D02*
X147331647Y-96760247D01*
X149631400Y-96748600D02*
X147343294Y-96748600D01*
D20*
X139069000Y-97784000D02*
X138319000Y-97784000D01*
X141077607Y-98345117D02*
X139630117Y-98345117D01*
X146164034Y-96748600D02*
X144208234Y-98704400D01*
X141436890Y-98704400D02*
X141077607Y-98345117D01*
X139630117Y-98345117D02*
X139069000Y-97784000D01*
X144208234Y-98704400D02*
X141436890Y-98704400D01*
X147343294Y-96748600D02*
X146164034Y-96748600D01*
D19*
%TO.N,SWDIO*%
X150622000Y-97790000D02*
X149707600Y-98704400D01*
X150622000Y-97758000D02*
X150622000Y-97790000D01*
X138464800Y-98729800D02*
X138319000Y-98584000D01*
X149707600Y-98704400D02*
X148031200Y-98704400D01*
D20*
X143717783Y-99603902D02*
X143173881Y-99060000D01*
X139069000Y-98584000D02*
X138319000Y-98584000D01*
X139545000Y-99060000D02*
X139069000Y-98584000D01*
X143173881Y-99060000D02*
X139545000Y-99060000D01*
D19*
%TO.N,+3V8*%
X145985200Y-89039700D02*
X145935700Y-89039700D01*
X148799500Y-100984000D02*
X146669000Y-100984000D01*
D20*
X146259366Y-100984000D02*
X146669000Y-100984000D01*
X145718990Y-100443624D02*
X146259366Y-100984000D01*
X145718990Y-97984010D02*
X145718990Y-100443624D01*
X145919000Y-97784000D02*
X145718990Y-97984010D01*
X146669000Y-97784000D02*
X145919000Y-97784000D01*
X143349599Y-89000002D02*
X143349599Y-89900001D01*
X143500401Y-88849200D02*
X143349599Y-89000002D01*
X143993801Y-88849200D02*
X143500401Y-88849200D01*
X144927799Y-89783198D02*
X143993801Y-88849200D01*
X144927799Y-92794299D02*
X144927799Y-89783198D01*
X146227800Y-94094300D02*
X144927799Y-92794299D01*
X145696697Y-89014300D02*
X144927799Y-89783198D01*
X146227800Y-89014300D02*
X145696697Y-89014300D01*
X147935600Y-97784000D02*
X147955000Y-97764600D01*
X146669000Y-97784000D02*
X147935600Y-97784000D01*
X146031305Y-100984000D02*
X146669000Y-100984000D01*
X145034000Y-99986695D02*
X146031305Y-100984000D01*
X145034000Y-99421010D02*
X145034000Y-99986695D01*
X150847000Y-101286599D02*
X150847000Y-102581500D01*
X150847000Y-102581500D02*
X150622000Y-102806500D01*
X148808901Y-100974599D02*
X150535000Y-100974599D01*
X150535000Y-100974599D02*
X150847000Y-101286599D01*
X148799500Y-100984000D02*
X148808901Y-100974599D01*
D19*
%TO.N,NRST*%
X150196000Y-100184000D02*
X146669000Y-100184000D01*
X150622000Y-99758000D02*
X150196000Y-100184000D01*
D20*
%TO.N,RX*%
X139659017Y-96409000D02*
X139129499Y-96938518D01*
X139694000Y-96409000D02*
X139659017Y-96409000D01*
X149746999Y-93508801D02*
X149746999Y-91648501D01*
X149746999Y-91648501D02*
X150622000Y-90773500D01*
X148564600Y-94691200D02*
X149746999Y-93508801D01*
%TO.N,TX*%
X147871914Y-103384000D02*
X146669000Y-103384000D01*
X149681314Y-101574600D02*
X147871914Y-103384000D01*
X150246999Y-101574600D02*
X149681314Y-101574600D01*
%TO.N,SPI_MOSI*%
X142435258Y-104417742D02*
X142094000Y-104759000D01*
X142435258Y-102905000D02*
X142435258Y-104417742D01*
%TO.N,SPI_MISO*%
X142894000Y-104009000D02*
X143637000Y-103266000D01*
X142894000Y-104759000D02*
X142894000Y-104009000D01*
X143637000Y-101388103D02*
X144221200Y-100803903D01*
X143637000Y-103266000D02*
X143637000Y-101388103D01*
%TO.N,SPI_SCLK*%
X140658352Y-100203902D02*
X140432725Y-99978275D01*
X144509201Y-100203902D02*
X140658352Y-100203902D01*
X144821201Y-100515902D02*
X144509201Y-100203902D01*
X144821201Y-102649219D02*
X144821201Y-100515902D01*
X143694000Y-103776420D02*
X144821201Y-102649219D01*
X143694000Y-104759000D02*
X143694000Y-103776420D01*
%TO.N,SPI_CS*%
X139433434Y-100888800D02*
X138728634Y-100184000D01*
X138728634Y-100184000D02*
X138319000Y-100184000D01*
X143103600Y-100888800D02*
X139433434Y-100888800D01*
D19*
%TO.N,INSENSE*%
X142349601Y-88980002D02*
X142349601Y-89900001D01*
X140971998Y-88875001D02*
X142244600Y-88875001D01*
X142244600Y-88875001D02*
X142349601Y-88980002D01*
D20*
X140971998Y-89660002D02*
X140411200Y-90220800D01*
X140971998Y-88875001D02*
X140971998Y-89660002D01*
D19*
%TO.N,OUT1*%
X142907000Y-89860000D02*
X142866999Y-89900001D01*
X150707600Y-85344000D02*
X149682590Y-86369010D01*
X147862410Y-86369010D02*
X147548600Y-86055200D01*
X149682590Y-86369010D02*
X147862410Y-86369010D01*
X142849600Y-88843591D02*
X142849600Y-89900001D01*
X146726918Y-87839299D02*
X143853892Y-87839299D01*
X146779715Y-87786502D02*
X146726918Y-87839299D01*
X143853892Y-87839299D02*
X142849600Y-88843591D01*
X147345400Y-87786502D02*
X146779715Y-87786502D01*
%TO.N,OUT2*%
X148707600Y-85344000D02*
X148485199Y-85121599D01*
X148129801Y-84766201D02*
X148707600Y-85344000D01*
X143884599Y-84766201D02*
X148129801Y-84766201D01*
X143484600Y-85166200D02*
X143884599Y-84766201D01*
X140552400Y-91197200D02*
X141849599Y-89900001D01*
X140552400Y-91409977D02*
X140552400Y-91197200D01*
D20*
%TO.N,LED1*%
X140494000Y-95746582D02*
X139913791Y-95166373D01*
X140494000Y-96409000D02*
X140494000Y-95746582D01*
X138551166Y-96342200D02*
X138455400Y-96342200D01*
X139726993Y-95166373D02*
X138551166Y-96342200D01*
X139913791Y-95166373D02*
X139726993Y-95166373D01*
%TO.N,PB0*%
X142886653Y-86207600D02*
X143433800Y-86207600D01*
X142505653Y-85826600D02*
X142886653Y-86207600D01*
X138328400Y-85826600D02*
X142505653Y-85826600D01*
X141294000Y-104207944D02*
X141294000Y-104759000D01*
X141294000Y-103437406D02*
X141364903Y-103366503D01*
X141294000Y-104759000D02*
X141294000Y-103437406D01*
%TO.N,PB1*%
X142470255Y-87096600D02*
X142678953Y-86887902D01*
X138328400Y-87096600D02*
X142470255Y-87096600D01*
X140494000Y-105168634D02*
X140494000Y-104759000D01*
X141927276Y-101955600D02*
X140494000Y-103388876D01*
X140494000Y-103388876D02*
X140494000Y-104759000D01*
X141927276Y-101955600D02*
X143035258Y-101955600D01*
D19*
%TO.N,Net-(BT1-Pad1)*%
X151215600Y-87004400D02*
X151028400Y-86817200D01*
X151215600Y-88188800D02*
X151215600Y-87004400D01*
%TD*%
M02*
