%TF.GenerationSoftware,KiCad,Pcbnew,(5.1.10-1-10_14)*%
%TF.CreationDate,2021-09-29T22:20:09+09:00*%
%TF.ProjectId,seamal,7365616d-616c-42e6-9b69-6361645f7063,rev?*%
%TF.SameCoordinates,Original*%
%TF.FileFunction,Legend,Bot*%
%TF.FilePolarity,Positive*%
%FSLAX46Y46*%
G04 Gerber Fmt 4.6, Leading zero omitted, Abs format (unit mm)*
G04 Created by KiCad (PCBNEW (5.1.10-1-10_14)) date 2021-09-29 22:20:09*
%MOMM*%
%LPD*%
G01*
G04 APERTURE LIST*
%ADD10C,0.080000*%
%ADD11C,0.150000*%
%ADD12C,0.120000*%
%ADD13C,0.100000*%
%ADD14R,2.180000X1.720000*%
%ADD15R,0.270000X1.399999*%
%ADD16O,1.350000X1.350000*%
%ADD17R,1.350000X1.350000*%
%ADD18R,1.270000X0.760000*%
%ADD19C,1.700000*%
%ADD20O,1.700000X1.700000*%
%ADD21R,1.700000X1.700000*%
G04 APERTURE END LIST*
D10*
X151510976Y-89443714D02*
X151130023Y-89443714D01*
X151320500Y-89634190D02*
X151320500Y-89253238D01*
X149440876Y-89392914D02*
X149059923Y-89392914D01*
X148797200Y-104521047D02*
X148773390Y-104473428D01*
X148773390Y-104402000D01*
X148797200Y-104330571D01*
X148844819Y-104282952D01*
X148892438Y-104259142D01*
X148987676Y-104235333D01*
X149059104Y-104235333D01*
X149154342Y-104259142D01*
X149201961Y-104282952D01*
X149249580Y-104330571D01*
X149273390Y-104402000D01*
X149273390Y-104449619D01*
X149249580Y-104521047D01*
X149225771Y-104544857D01*
X149059104Y-104544857D01*
X149059104Y-104449619D01*
X149273390Y-104759142D02*
X148773390Y-104759142D01*
X149273390Y-105044857D01*
X148773390Y-105044857D01*
X149273390Y-105282952D02*
X148773390Y-105282952D01*
X148773390Y-105402000D01*
X148797200Y-105473428D01*
X148844819Y-105521047D01*
X148892438Y-105544857D01*
X148987676Y-105568666D01*
X149059104Y-105568666D01*
X149154342Y-105544857D01*
X149201961Y-105521047D01*
X149249580Y-105473428D01*
X149273390Y-105402000D01*
X149273390Y-105282952D01*
X148773390Y-101692152D02*
X148773390Y-102001676D01*
X148963866Y-101835009D01*
X148963866Y-101906438D01*
X148987676Y-101954057D01*
X149011485Y-101977866D01*
X149059104Y-102001676D01*
X149178152Y-102001676D01*
X149225771Y-101977866D01*
X149249580Y-101954057D01*
X149273390Y-101906438D01*
X149273390Y-101763580D01*
X149249580Y-101715961D01*
X149225771Y-101692152D01*
X148773390Y-102144533D02*
X149273390Y-102311200D01*
X148773390Y-102477866D01*
X148987676Y-102715961D02*
X148963866Y-102668342D01*
X148940057Y-102644533D01*
X148892438Y-102620723D01*
X148868628Y-102620723D01*
X148821009Y-102644533D01*
X148797200Y-102668342D01*
X148773390Y-102715961D01*
X148773390Y-102811200D01*
X148797200Y-102858819D01*
X148821009Y-102882628D01*
X148868628Y-102906438D01*
X148892438Y-102906438D01*
X148940057Y-102882628D01*
X148963866Y-102858819D01*
X148987676Y-102811200D01*
X148987676Y-102715961D01*
X149011485Y-102668342D01*
X149035295Y-102644533D01*
X149082914Y-102620723D01*
X149178152Y-102620723D01*
X149225771Y-102644533D01*
X149249580Y-102668342D01*
X149273390Y-102715961D01*
X149273390Y-102811200D01*
X149249580Y-102858819D01*
X149225771Y-102882628D01*
X149178152Y-102906438D01*
X149082914Y-102906438D01*
X149035295Y-102882628D01*
X149011485Y-102858819D01*
X148987676Y-102811200D01*
X149349590Y-98924371D02*
X148849590Y-98924371D01*
X149349590Y-99210085D01*
X148849590Y-99210085D01*
X149349590Y-99733895D02*
X149111495Y-99567228D01*
X149349590Y-99448180D02*
X148849590Y-99448180D01*
X148849590Y-99638657D01*
X148873400Y-99686276D01*
X148897209Y-99710085D01*
X148944828Y-99733895D01*
X149016257Y-99733895D01*
X149063876Y-99710085D01*
X149087685Y-99686276D01*
X149111495Y-99638657D01*
X149111495Y-99448180D01*
X149325780Y-99924371D02*
X149349590Y-99995800D01*
X149349590Y-100114847D01*
X149325780Y-100162466D01*
X149301971Y-100186276D01*
X149254352Y-100210085D01*
X149206733Y-100210085D01*
X149159114Y-100186276D01*
X149135304Y-100162466D01*
X149111495Y-100114847D01*
X149087685Y-100019609D01*
X149063876Y-99971990D01*
X149040066Y-99948180D01*
X148992447Y-99924371D01*
X148944828Y-99924371D01*
X148897209Y-99948180D01*
X148873400Y-99971990D01*
X148849590Y-100019609D01*
X148849590Y-100138657D01*
X148873400Y-100210085D01*
X148849590Y-100352942D02*
X148849590Y-100638657D01*
X149349590Y-100495800D02*
X148849590Y-100495800D01*
X149324190Y-97201895D02*
X148824190Y-97201895D01*
X148824190Y-97320942D01*
X148848000Y-97392371D01*
X148895619Y-97439990D01*
X148943238Y-97463800D01*
X149038476Y-97487609D01*
X149109904Y-97487609D01*
X149205142Y-97463800D01*
X149252761Y-97439990D01*
X149300380Y-97392371D01*
X149324190Y-97320942D01*
X149324190Y-97201895D01*
X149324190Y-97701895D02*
X148824190Y-97701895D01*
X148824190Y-98035228D02*
X148824190Y-98130466D01*
X148848000Y-98178085D01*
X148895619Y-98225704D01*
X148990857Y-98249514D01*
X149157523Y-98249514D01*
X149252761Y-98225704D01*
X149300380Y-98178085D01*
X149324190Y-98130466D01*
X149324190Y-98035228D01*
X149300380Y-97987609D01*
X149252761Y-97939990D01*
X149157523Y-97916180D01*
X148990857Y-97916180D01*
X148895619Y-97939990D01*
X148848000Y-97987609D01*
X148824190Y-98035228D01*
X149225771Y-95460380D02*
X149249580Y-95436571D01*
X149273390Y-95365142D01*
X149273390Y-95317523D01*
X149249580Y-95246095D01*
X149201961Y-95198476D01*
X149154342Y-95174666D01*
X149059104Y-95150857D01*
X148987676Y-95150857D01*
X148892438Y-95174666D01*
X148844819Y-95198476D01*
X148797200Y-95246095D01*
X148773390Y-95317523D01*
X148773390Y-95365142D01*
X148797200Y-95436571D01*
X148821009Y-95460380D01*
X149273390Y-95912761D02*
X149273390Y-95674666D01*
X148773390Y-95674666D01*
X149273390Y-96079428D02*
X148773390Y-96079428D01*
X149273390Y-96365142D02*
X148987676Y-96150857D01*
X148773390Y-96365142D02*
X149059104Y-96079428D01*
X148735290Y-92443347D02*
X148735290Y-92729061D01*
X149235290Y-92586204D02*
X148735290Y-92586204D01*
X148735290Y-92848109D02*
X149235290Y-93181442D01*
X148735290Y-93181442D02*
X149235290Y-92848109D01*
X149235290Y-90658166D02*
X148997195Y-90491500D01*
X149235290Y-90372452D02*
X148735290Y-90372452D01*
X148735290Y-90562928D01*
X148759100Y-90610547D01*
X148782909Y-90634357D01*
X148830528Y-90658166D01*
X148901957Y-90658166D01*
X148949576Y-90634357D01*
X148973385Y-90610547D01*
X148997195Y-90562928D01*
X148997195Y-90372452D01*
X148735290Y-90824833D02*
X149235290Y-91158166D01*
X148735290Y-91158166D02*
X149235290Y-90824833D01*
D11*
X147269200Y-96581980D02*
X147269200Y-96820076D01*
X147507295Y-96724838D02*
X147269200Y-96820076D01*
X147031104Y-96724838D01*
X147412057Y-97010552D02*
X147269200Y-96820076D01*
X147126342Y-97010552D01*
D12*
%TO.C,U3*%
X144526599Y-90398001D02*
X144526599Y-93751999D01*
X144526599Y-93751999D02*
X144317341Y-93751999D01*
X141172601Y-93751999D02*
X141172601Y-90398001D01*
X141172601Y-90398001D02*
X141381859Y-90398001D01*
X144317341Y-90398001D02*
X144526599Y-90398001D01*
X141381859Y-93751999D02*
X141172601Y-93751999D01*
%TO.C,Motor*%
X149480536Y-84609000D02*
X149934664Y-84609000D01*
X149480536Y-86079000D02*
X149934664Y-86079000D01*
%TO.C,BT1*%
X150442664Y-88923800D02*
X149988536Y-88923800D01*
X150442664Y-87453800D02*
X149988536Y-87453800D01*
%TO.C,SW2*%
X139378400Y-87156600D02*
X139378400Y-88591600D01*
X144898400Y-87156600D02*
X144898400Y-88591600D01*
X139378400Y-84330600D02*
X139378400Y-85765600D01*
X144898400Y-84330600D02*
X139378400Y-84330600D01*
X144898400Y-84330600D02*
X144898400Y-85146600D01*
X146584400Y-85146600D02*
X144898400Y-85146600D01*
X144898400Y-88591600D02*
X139378400Y-88591600D01*
%TO.C,U1*%
X146104000Y-97274000D02*
X147419000Y-97274000D01*
X146104000Y-96974000D02*
X146104000Y-97274000D01*
X145804000Y-96974000D02*
X146104000Y-96974000D01*
X138884000Y-96974000D02*
X138884000Y-97274000D01*
X139184000Y-96974000D02*
X138884000Y-96974000D01*
X146104000Y-104194000D02*
X146104000Y-103894000D01*
X145804000Y-104194000D02*
X146104000Y-104194000D01*
X138884000Y-104194000D02*
X138884000Y-103894000D01*
X139184000Y-104194000D02*
X138884000Y-104194000D01*
%TO.C,U3*%
D10*
X144920210Y-92169027D02*
X145324972Y-92169027D01*
X145372591Y-92192837D01*
X145396400Y-92216646D01*
X145420210Y-92264265D01*
X145420210Y-92359503D01*
X145396400Y-92407122D01*
X145372591Y-92430932D01*
X145324972Y-92454741D01*
X144920210Y-92454741D01*
X144920210Y-92645218D02*
X144920210Y-92954741D01*
X145110686Y-92788075D01*
X145110686Y-92859503D01*
X145134496Y-92907122D01*
X145158305Y-92930932D01*
X145205924Y-92954741D01*
X145324972Y-92954741D01*
X145372591Y-92930932D01*
X145396400Y-92907122D01*
X145420210Y-92859503D01*
X145420210Y-92716646D01*
X145396400Y-92669027D01*
X145372591Y-92645218D01*
X140891390Y-92102180D02*
X140391390Y-92102180D01*
X140391390Y-92221228D01*
X140415200Y-92292657D01*
X140462819Y-92340276D01*
X140510438Y-92364085D01*
X140605676Y-92387895D01*
X140677104Y-92387895D01*
X140772342Y-92364085D01*
X140819961Y-92340276D01*
X140867580Y-92292657D01*
X140891390Y-92221228D01*
X140891390Y-92102180D01*
X140891390Y-92887895D02*
X140653295Y-92721228D01*
X140891390Y-92602180D02*
X140391390Y-92602180D01*
X140391390Y-92792657D01*
X140415200Y-92840276D01*
X140439009Y-92864085D01*
X140486628Y-92887895D01*
X140558057Y-92887895D01*
X140605676Y-92864085D01*
X140629485Y-92840276D01*
X140653295Y-92792657D01*
X140653295Y-92602180D01*
X140391390Y-93030752D02*
X140891390Y-93197419D01*
X140391390Y-93364085D01*
X140605676Y-93602180D02*
X140581866Y-93554561D01*
X140558057Y-93530752D01*
X140510438Y-93506942D01*
X140486628Y-93506942D01*
X140439009Y-93530752D01*
X140415200Y-93554561D01*
X140391390Y-93602180D01*
X140391390Y-93697419D01*
X140415200Y-93745038D01*
X140439009Y-93768847D01*
X140486628Y-93792657D01*
X140510438Y-93792657D01*
X140558057Y-93768847D01*
X140581866Y-93745038D01*
X140605676Y-93697419D01*
X140605676Y-93602180D01*
X140629485Y-93554561D01*
X140653295Y-93530752D01*
X140700914Y-93506942D01*
X140796152Y-93506942D01*
X140843771Y-93530752D01*
X140867580Y-93554561D01*
X140891390Y-93602180D01*
X140891390Y-93697419D01*
X140867580Y-93745038D01*
X140843771Y-93768847D01*
X140796152Y-93792657D01*
X140700914Y-93792657D01*
X140653295Y-93768847D01*
X140629485Y-93745038D01*
X140605676Y-93697419D01*
X140605676Y-94078371D02*
X140581866Y-94030752D01*
X140558057Y-94006942D01*
X140510438Y-93983133D01*
X140486628Y-93983133D01*
X140439009Y-94006942D01*
X140415200Y-94030752D01*
X140391390Y-94078371D01*
X140391390Y-94173609D01*
X140415200Y-94221228D01*
X140439009Y-94245038D01*
X140486628Y-94268847D01*
X140510438Y-94268847D01*
X140558057Y-94245038D01*
X140581866Y-94221228D01*
X140605676Y-94173609D01*
X140605676Y-94078371D01*
X140629485Y-94030752D01*
X140653295Y-94006942D01*
X140700914Y-93983133D01*
X140796152Y-93983133D01*
X140843771Y-94006942D01*
X140867580Y-94030752D01*
X140891390Y-94078371D01*
X140891390Y-94173609D01*
X140867580Y-94221228D01*
X140843771Y-94245038D01*
X140796152Y-94268847D01*
X140700914Y-94268847D01*
X140653295Y-94245038D01*
X140629485Y-94221228D01*
X140605676Y-94173609D01*
X140391390Y-94435514D02*
X140391390Y-94745038D01*
X140581866Y-94578371D01*
X140581866Y-94649800D01*
X140605676Y-94697419D01*
X140629485Y-94721228D01*
X140677104Y-94745038D01*
X140796152Y-94745038D01*
X140843771Y-94721228D01*
X140867580Y-94697419D01*
X140891390Y-94649800D01*
X140891390Y-94506942D01*
X140867580Y-94459323D01*
X140843771Y-94435514D01*
X140391390Y-95054561D02*
X140391390Y-95102180D01*
X140415200Y-95149800D01*
X140439009Y-95173609D01*
X140486628Y-95197419D01*
X140581866Y-95221228D01*
X140700914Y-95221228D01*
X140796152Y-95197419D01*
X140843771Y-95173609D01*
X140867580Y-95149800D01*
X140891390Y-95102180D01*
X140891390Y-95054561D01*
X140867580Y-95006942D01*
X140843771Y-94983133D01*
X140796152Y-94959323D01*
X140700914Y-94935514D01*
X140581866Y-94935514D01*
X140486628Y-94959323D01*
X140439009Y-94983133D01*
X140415200Y-95006942D01*
X140391390Y-95054561D01*
D11*
X140955780Y-89611200D02*
X141193876Y-89611200D01*
X141098638Y-89373104D02*
X141193876Y-89611200D01*
X141098638Y-89849295D01*
X141384352Y-89468342D02*
X141193876Y-89611200D01*
X141384352Y-89754057D01*
%TO.C,Motor*%
D10*
X150675066Y-86992590D02*
X150675066Y-86492590D01*
X150508400Y-86849733D01*
X150341733Y-86492590D01*
X150341733Y-86992590D01*
X150032209Y-86992590D02*
X150079828Y-86968780D01*
X150103638Y-86944971D01*
X150127447Y-86897352D01*
X150127447Y-86754495D01*
X150103638Y-86706876D01*
X150079828Y-86683066D01*
X150032209Y-86659257D01*
X149960780Y-86659257D01*
X149913161Y-86683066D01*
X149889352Y-86706876D01*
X149865542Y-86754495D01*
X149865542Y-86897352D01*
X149889352Y-86944971D01*
X149913161Y-86968780D01*
X149960780Y-86992590D01*
X150032209Y-86992590D01*
X149722685Y-86659257D02*
X149532209Y-86659257D01*
X149651257Y-86492590D02*
X149651257Y-86921161D01*
X149627447Y-86968780D01*
X149579828Y-86992590D01*
X149532209Y-86992590D01*
X149294114Y-86992590D02*
X149341733Y-86968780D01*
X149365542Y-86944971D01*
X149389352Y-86897352D01*
X149389352Y-86754495D01*
X149365542Y-86706876D01*
X149341733Y-86683066D01*
X149294114Y-86659257D01*
X149222685Y-86659257D01*
X149175066Y-86683066D01*
X149151257Y-86706876D01*
X149127447Y-86754495D01*
X149127447Y-86897352D01*
X149151257Y-86944971D01*
X149175066Y-86968780D01*
X149222685Y-86992590D01*
X149294114Y-86992590D01*
X148913161Y-86992590D02*
X148913161Y-86659257D01*
X148913161Y-86754495D02*
X148889352Y-86706876D01*
X148865542Y-86683066D01*
X148817923Y-86659257D01*
X148770304Y-86659257D01*
%TO.C,BT1*%
X148170057Y-88508685D02*
X148098628Y-88532495D01*
X148074819Y-88556304D01*
X148051009Y-88603923D01*
X148051009Y-88675352D01*
X148074819Y-88722971D01*
X148098628Y-88746780D01*
X148146247Y-88770590D01*
X148336723Y-88770590D01*
X148336723Y-88270590D01*
X148170057Y-88270590D01*
X148122438Y-88294400D01*
X148098628Y-88318209D01*
X148074819Y-88365828D01*
X148074819Y-88413447D01*
X148098628Y-88461066D01*
X148122438Y-88484876D01*
X148170057Y-88508685D01*
X148336723Y-88508685D01*
X147908152Y-88270590D02*
X147622438Y-88270590D01*
X147765295Y-88770590D02*
X147765295Y-88270590D01*
X147193866Y-88770590D02*
X147479580Y-88770590D01*
X147336723Y-88770590D02*
X147336723Y-88270590D01*
X147384342Y-88342019D01*
X147431961Y-88389638D01*
X147479580Y-88413447D01*
%TO.C,SW2*%
X139058566Y-84949480D02*
X138987138Y-84973290D01*
X138868090Y-84973290D01*
X138820471Y-84949480D01*
X138796661Y-84925671D01*
X138772852Y-84878052D01*
X138772852Y-84830433D01*
X138796661Y-84782814D01*
X138820471Y-84759004D01*
X138868090Y-84735195D01*
X138963328Y-84711385D01*
X139010947Y-84687576D01*
X139034757Y-84663766D01*
X139058566Y-84616147D01*
X139058566Y-84568528D01*
X139034757Y-84520909D01*
X139010947Y-84497100D01*
X138963328Y-84473290D01*
X138844280Y-84473290D01*
X138772852Y-84497100D01*
X138606185Y-84473290D02*
X138487138Y-84973290D01*
X138391900Y-84616147D01*
X138296661Y-84973290D01*
X138177614Y-84473290D01*
X138010947Y-84520909D02*
X137987138Y-84497100D01*
X137939519Y-84473290D01*
X137820471Y-84473290D01*
X137772852Y-84497100D01*
X137749042Y-84520909D01*
X137725233Y-84568528D01*
X137725233Y-84616147D01*
X137749042Y-84687576D01*
X138034757Y-84973290D01*
X137725233Y-84973290D01*
%TO.C,U1*%
X138582352Y-96881190D02*
X138582352Y-97285952D01*
X138558542Y-97333571D01*
X138534733Y-97357380D01*
X138487114Y-97381190D01*
X138391876Y-97381190D01*
X138344257Y-97357380D01*
X138320447Y-97333571D01*
X138296638Y-97285952D01*
X138296638Y-96881190D01*
X137796638Y-97381190D02*
X138082352Y-97381190D01*
X137939495Y-97381190D02*
X137939495Y-96881190D01*
X137987114Y-96952619D01*
X138034733Y-97000238D01*
X138082352Y-97024047D01*
%TD*%
%LPC*%
D13*
%TO.C,U3*%
G36*
X141696100Y-91151500D02*
G01*
X141696100Y-92998500D01*
X142255900Y-92998500D01*
X142255900Y-91151500D01*
X141696100Y-91151500D01*
G37*
X141696100Y-91151500D02*
X141696100Y-92998500D01*
X142255900Y-92998500D01*
X142255900Y-91151500D01*
X141696100Y-91151500D01*
G36*
X142655900Y-91151500D02*
G01*
X142655900Y-92998500D01*
X143043300Y-92998500D01*
X143043300Y-91151500D01*
X142655900Y-91151500D01*
G37*
X142655900Y-91151500D02*
X142655900Y-92998500D01*
X143043300Y-92998500D01*
X143043300Y-91151500D01*
X142655900Y-91151500D01*
G36*
X143443300Y-91151500D02*
G01*
X143443300Y-92998500D01*
X144003100Y-92998500D01*
X144003100Y-91151500D01*
X143443300Y-91151500D01*
G37*
X143443300Y-91151500D02*
X143443300Y-92998500D01*
X144003100Y-92998500D01*
X144003100Y-91151500D01*
X143443300Y-91151500D01*
G36*
X141696100Y-91151500D02*
G01*
X141696100Y-91481300D01*
X144003100Y-91481300D01*
X144003100Y-91151500D01*
X141696100Y-91151500D01*
G37*
X141696100Y-91151500D02*
X141696100Y-91481300D01*
X144003100Y-91481300D01*
X144003100Y-91151500D01*
X141696100Y-91151500D01*
G36*
X141696100Y-92268700D02*
G01*
X141696100Y-91881300D01*
X144003100Y-91881300D01*
X144003100Y-92268700D01*
X141696100Y-92268700D01*
G37*
X141696100Y-92268700D02*
X141696100Y-91881300D01*
X144003100Y-91881300D01*
X144003100Y-92268700D01*
X141696100Y-92268700D01*
G36*
X141696100Y-92668700D02*
G01*
X141696100Y-92998500D01*
X144003100Y-92998500D01*
X144003100Y-92668700D01*
X141696100Y-92668700D01*
G37*
X141696100Y-92668700D02*
X141696100Y-92998500D01*
X144003100Y-92998500D01*
X144003100Y-92668700D01*
X141696100Y-92668700D01*
%TD*%
D14*
%TO.C,U3*%
X142849600Y-92075000D03*
D15*
X141849599Y-94249999D03*
X142349601Y-94249999D03*
X142849600Y-94249999D03*
X143349599Y-94249999D03*
X143849601Y-94249999D03*
X143849601Y-89900001D03*
X143349599Y-89900001D03*
X142849600Y-89900001D03*
X142349601Y-89900001D03*
X141849599Y-89900001D03*
%TD*%
%TO.C,Motor*%
G36*
G01*
X150107600Y-85794001D02*
X150107600Y-84893999D01*
G75*
G02*
X150357599Y-84644000I249999J0D01*
G01*
X151057601Y-84644000D01*
G75*
G02*
X151307600Y-84893999I0J-249999D01*
G01*
X151307600Y-85794001D01*
G75*
G02*
X151057601Y-86044000I-249999J0D01*
G01*
X150357599Y-86044000D01*
G75*
G02*
X150107600Y-85794001I0J249999D01*
G01*
G37*
G36*
G01*
X148107600Y-85794001D02*
X148107600Y-84893999D01*
G75*
G02*
X148357599Y-84644000I249999J0D01*
G01*
X149057601Y-84644000D01*
G75*
G02*
X149307600Y-84893999I0J-249999D01*
G01*
X149307600Y-85794001D01*
G75*
G02*
X149057601Y-86044000I-249999J0D01*
G01*
X148357599Y-86044000D01*
G75*
G02*
X148107600Y-85794001I0J249999D01*
G01*
G37*
%TD*%
%TO.C,BT1*%
G36*
G01*
X149815600Y-87738799D02*
X149815600Y-88638801D01*
G75*
G02*
X149565601Y-88888800I-249999J0D01*
G01*
X148865599Y-88888800D01*
G75*
G02*
X148615600Y-88638801I0J249999D01*
G01*
X148615600Y-87738799D01*
G75*
G02*
X148865599Y-87488800I249999J0D01*
G01*
X149565601Y-87488800D01*
G75*
G02*
X149815600Y-87738799I0J-249999D01*
G01*
G37*
G36*
G01*
X151815600Y-87738799D02*
X151815600Y-88638801D01*
G75*
G02*
X151565601Y-88888800I-249999J0D01*
G01*
X150865599Y-88888800D01*
G75*
G02*
X150615600Y-88638801I0J249999D01*
G01*
X150615600Y-87738799D01*
G75*
G02*
X150865599Y-87488800I249999J0D01*
G01*
X151565601Y-87488800D01*
G75*
G02*
X151815600Y-87738799I0J-249999D01*
G01*
G37*
%TD*%
D16*
%TO.C,J3*%
X150622000Y-104806500D03*
D17*
X150622000Y-102806500D03*
%TD*%
D18*
%TO.C,SW2*%
X145948400Y-85826600D03*
X138328400Y-87096600D03*
X145948400Y-87096600D03*
X138328400Y-85826600D03*
%TD*%
%TO.C,U1*%
G36*
G01*
X145544000Y-95784000D02*
X145544000Y-97034000D01*
G75*
G02*
X145419000Y-97159000I-125000J0D01*
G01*
X145169000Y-97159000D01*
G75*
G02*
X145044000Y-97034000I0J125000D01*
G01*
X145044000Y-95784000D01*
G75*
G02*
X145169000Y-95659000I125000J0D01*
G01*
X145419000Y-95659000D01*
G75*
G02*
X145544000Y-95784000I0J-125000D01*
G01*
G37*
G36*
G01*
X144744000Y-95784000D02*
X144744000Y-97034000D01*
G75*
G02*
X144619000Y-97159000I-125000J0D01*
G01*
X144369000Y-97159000D01*
G75*
G02*
X144244000Y-97034000I0J125000D01*
G01*
X144244000Y-95784000D01*
G75*
G02*
X144369000Y-95659000I125000J0D01*
G01*
X144619000Y-95659000D01*
G75*
G02*
X144744000Y-95784000I0J-125000D01*
G01*
G37*
G36*
G01*
X143944000Y-95784000D02*
X143944000Y-97034000D01*
G75*
G02*
X143819000Y-97159000I-125000J0D01*
G01*
X143569000Y-97159000D01*
G75*
G02*
X143444000Y-97034000I0J125000D01*
G01*
X143444000Y-95784000D01*
G75*
G02*
X143569000Y-95659000I125000J0D01*
G01*
X143819000Y-95659000D01*
G75*
G02*
X143944000Y-95784000I0J-125000D01*
G01*
G37*
G36*
G01*
X143144000Y-95784000D02*
X143144000Y-97034000D01*
G75*
G02*
X143019000Y-97159000I-125000J0D01*
G01*
X142769000Y-97159000D01*
G75*
G02*
X142644000Y-97034000I0J125000D01*
G01*
X142644000Y-95784000D01*
G75*
G02*
X142769000Y-95659000I125000J0D01*
G01*
X143019000Y-95659000D01*
G75*
G02*
X143144000Y-95784000I0J-125000D01*
G01*
G37*
G36*
G01*
X142344000Y-95784000D02*
X142344000Y-97034000D01*
G75*
G02*
X142219000Y-97159000I-125000J0D01*
G01*
X141969000Y-97159000D01*
G75*
G02*
X141844000Y-97034000I0J125000D01*
G01*
X141844000Y-95784000D01*
G75*
G02*
X141969000Y-95659000I125000J0D01*
G01*
X142219000Y-95659000D01*
G75*
G02*
X142344000Y-95784000I0J-125000D01*
G01*
G37*
G36*
G01*
X141544000Y-95784000D02*
X141544000Y-97034000D01*
G75*
G02*
X141419000Y-97159000I-125000J0D01*
G01*
X141169000Y-97159000D01*
G75*
G02*
X141044000Y-97034000I0J125000D01*
G01*
X141044000Y-95784000D01*
G75*
G02*
X141169000Y-95659000I125000J0D01*
G01*
X141419000Y-95659000D01*
G75*
G02*
X141544000Y-95784000I0J-125000D01*
G01*
G37*
G36*
G01*
X140744000Y-95784000D02*
X140744000Y-97034000D01*
G75*
G02*
X140619000Y-97159000I-125000J0D01*
G01*
X140369000Y-97159000D01*
G75*
G02*
X140244000Y-97034000I0J125000D01*
G01*
X140244000Y-95784000D01*
G75*
G02*
X140369000Y-95659000I125000J0D01*
G01*
X140619000Y-95659000D01*
G75*
G02*
X140744000Y-95784000I0J-125000D01*
G01*
G37*
G36*
G01*
X139944000Y-95784000D02*
X139944000Y-97034000D01*
G75*
G02*
X139819000Y-97159000I-125000J0D01*
G01*
X139569000Y-97159000D01*
G75*
G02*
X139444000Y-97034000I0J125000D01*
G01*
X139444000Y-95784000D01*
G75*
G02*
X139569000Y-95659000I125000J0D01*
G01*
X139819000Y-95659000D01*
G75*
G02*
X139944000Y-95784000I0J-125000D01*
G01*
G37*
G36*
G01*
X139069000Y-97659000D02*
X139069000Y-97909000D01*
G75*
G02*
X138944000Y-98034000I-125000J0D01*
G01*
X137694000Y-98034000D01*
G75*
G02*
X137569000Y-97909000I0J125000D01*
G01*
X137569000Y-97659000D01*
G75*
G02*
X137694000Y-97534000I125000J0D01*
G01*
X138944000Y-97534000D01*
G75*
G02*
X139069000Y-97659000I0J-125000D01*
G01*
G37*
G36*
G01*
X139069000Y-98459000D02*
X139069000Y-98709000D01*
G75*
G02*
X138944000Y-98834000I-125000J0D01*
G01*
X137694000Y-98834000D01*
G75*
G02*
X137569000Y-98709000I0J125000D01*
G01*
X137569000Y-98459000D01*
G75*
G02*
X137694000Y-98334000I125000J0D01*
G01*
X138944000Y-98334000D01*
G75*
G02*
X139069000Y-98459000I0J-125000D01*
G01*
G37*
G36*
G01*
X139069000Y-99259000D02*
X139069000Y-99509000D01*
G75*
G02*
X138944000Y-99634000I-125000J0D01*
G01*
X137694000Y-99634000D01*
G75*
G02*
X137569000Y-99509000I0J125000D01*
G01*
X137569000Y-99259000D01*
G75*
G02*
X137694000Y-99134000I125000J0D01*
G01*
X138944000Y-99134000D01*
G75*
G02*
X139069000Y-99259000I0J-125000D01*
G01*
G37*
G36*
G01*
X139069000Y-100059000D02*
X139069000Y-100309000D01*
G75*
G02*
X138944000Y-100434000I-125000J0D01*
G01*
X137694000Y-100434000D01*
G75*
G02*
X137569000Y-100309000I0J125000D01*
G01*
X137569000Y-100059000D01*
G75*
G02*
X137694000Y-99934000I125000J0D01*
G01*
X138944000Y-99934000D01*
G75*
G02*
X139069000Y-100059000I0J-125000D01*
G01*
G37*
G36*
G01*
X139069000Y-100859000D02*
X139069000Y-101109000D01*
G75*
G02*
X138944000Y-101234000I-125000J0D01*
G01*
X137694000Y-101234000D01*
G75*
G02*
X137569000Y-101109000I0J125000D01*
G01*
X137569000Y-100859000D01*
G75*
G02*
X137694000Y-100734000I125000J0D01*
G01*
X138944000Y-100734000D01*
G75*
G02*
X139069000Y-100859000I0J-125000D01*
G01*
G37*
G36*
G01*
X139069000Y-101659000D02*
X139069000Y-101909000D01*
G75*
G02*
X138944000Y-102034000I-125000J0D01*
G01*
X137694000Y-102034000D01*
G75*
G02*
X137569000Y-101909000I0J125000D01*
G01*
X137569000Y-101659000D01*
G75*
G02*
X137694000Y-101534000I125000J0D01*
G01*
X138944000Y-101534000D01*
G75*
G02*
X139069000Y-101659000I0J-125000D01*
G01*
G37*
G36*
G01*
X139069000Y-102459000D02*
X139069000Y-102709000D01*
G75*
G02*
X138944000Y-102834000I-125000J0D01*
G01*
X137694000Y-102834000D01*
G75*
G02*
X137569000Y-102709000I0J125000D01*
G01*
X137569000Y-102459000D01*
G75*
G02*
X137694000Y-102334000I125000J0D01*
G01*
X138944000Y-102334000D01*
G75*
G02*
X139069000Y-102459000I0J-125000D01*
G01*
G37*
G36*
G01*
X139069000Y-103259000D02*
X139069000Y-103509000D01*
G75*
G02*
X138944000Y-103634000I-125000J0D01*
G01*
X137694000Y-103634000D01*
G75*
G02*
X137569000Y-103509000I0J125000D01*
G01*
X137569000Y-103259000D01*
G75*
G02*
X137694000Y-103134000I125000J0D01*
G01*
X138944000Y-103134000D01*
G75*
G02*
X139069000Y-103259000I0J-125000D01*
G01*
G37*
G36*
G01*
X139944000Y-104134000D02*
X139944000Y-105384000D01*
G75*
G02*
X139819000Y-105509000I-125000J0D01*
G01*
X139569000Y-105509000D01*
G75*
G02*
X139444000Y-105384000I0J125000D01*
G01*
X139444000Y-104134000D01*
G75*
G02*
X139569000Y-104009000I125000J0D01*
G01*
X139819000Y-104009000D01*
G75*
G02*
X139944000Y-104134000I0J-125000D01*
G01*
G37*
G36*
G01*
X140744000Y-104134000D02*
X140744000Y-105384000D01*
G75*
G02*
X140619000Y-105509000I-125000J0D01*
G01*
X140369000Y-105509000D01*
G75*
G02*
X140244000Y-105384000I0J125000D01*
G01*
X140244000Y-104134000D01*
G75*
G02*
X140369000Y-104009000I125000J0D01*
G01*
X140619000Y-104009000D01*
G75*
G02*
X140744000Y-104134000I0J-125000D01*
G01*
G37*
G36*
G01*
X141544000Y-104134000D02*
X141544000Y-105384000D01*
G75*
G02*
X141419000Y-105509000I-125000J0D01*
G01*
X141169000Y-105509000D01*
G75*
G02*
X141044000Y-105384000I0J125000D01*
G01*
X141044000Y-104134000D01*
G75*
G02*
X141169000Y-104009000I125000J0D01*
G01*
X141419000Y-104009000D01*
G75*
G02*
X141544000Y-104134000I0J-125000D01*
G01*
G37*
G36*
G01*
X142344000Y-104134000D02*
X142344000Y-105384000D01*
G75*
G02*
X142219000Y-105509000I-125000J0D01*
G01*
X141969000Y-105509000D01*
G75*
G02*
X141844000Y-105384000I0J125000D01*
G01*
X141844000Y-104134000D01*
G75*
G02*
X141969000Y-104009000I125000J0D01*
G01*
X142219000Y-104009000D01*
G75*
G02*
X142344000Y-104134000I0J-125000D01*
G01*
G37*
G36*
G01*
X143144000Y-104134000D02*
X143144000Y-105384000D01*
G75*
G02*
X143019000Y-105509000I-125000J0D01*
G01*
X142769000Y-105509000D01*
G75*
G02*
X142644000Y-105384000I0J125000D01*
G01*
X142644000Y-104134000D01*
G75*
G02*
X142769000Y-104009000I125000J0D01*
G01*
X143019000Y-104009000D01*
G75*
G02*
X143144000Y-104134000I0J-125000D01*
G01*
G37*
G36*
G01*
X143944000Y-104134000D02*
X143944000Y-105384000D01*
G75*
G02*
X143819000Y-105509000I-125000J0D01*
G01*
X143569000Y-105509000D01*
G75*
G02*
X143444000Y-105384000I0J125000D01*
G01*
X143444000Y-104134000D01*
G75*
G02*
X143569000Y-104009000I125000J0D01*
G01*
X143819000Y-104009000D01*
G75*
G02*
X143944000Y-104134000I0J-125000D01*
G01*
G37*
G36*
G01*
X144744000Y-104134000D02*
X144744000Y-105384000D01*
G75*
G02*
X144619000Y-105509000I-125000J0D01*
G01*
X144369000Y-105509000D01*
G75*
G02*
X144244000Y-105384000I0J125000D01*
G01*
X144244000Y-104134000D01*
G75*
G02*
X144369000Y-104009000I125000J0D01*
G01*
X144619000Y-104009000D01*
G75*
G02*
X144744000Y-104134000I0J-125000D01*
G01*
G37*
G36*
G01*
X145544000Y-104134000D02*
X145544000Y-105384000D01*
G75*
G02*
X145419000Y-105509000I-125000J0D01*
G01*
X145169000Y-105509000D01*
G75*
G02*
X145044000Y-105384000I0J125000D01*
G01*
X145044000Y-104134000D01*
G75*
G02*
X145169000Y-104009000I125000J0D01*
G01*
X145419000Y-104009000D01*
G75*
G02*
X145544000Y-104134000I0J-125000D01*
G01*
G37*
G36*
G01*
X147419000Y-103259000D02*
X147419000Y-103509000D01*
G75*
G02*
X147294000Y-103634000I-125000J0D01*
G01*
X146044000Y-103634000D01*
G75*
G02*
X145919000Y-103509000I0J125000D01*
G01*
X145919000Y-103259000D01*
G75*
G02*
X146044000Y-103134000I125000J0D01*
G01*
X147294000Y-103134000D01*
G75*
G02*
X147419000Y-103259000I0J-125000D01*
G01*
G37*
G36*
G01*
X147419000Y-102459000D02*
X147419000Y-102709000D01*
G75*
G02*
X147294000Y-102834000I-125000J0D01*
G01*
X146044000Y-102834000D01*
G75*
G02*
X145919000Y-102709000I0J125000D01*
G01*
X145919000Y-102459000D01*
G75*
G02*
X146044000Y-102334000I125000J0D01*
G01*
X147294000Y-102334000D01*
G75*
G02*
X147419000Y-102459000I0J-125000D01*
G01*
G37*
G36*
G01*
X147419000Y-101659000D02*
X147419000Y-101909000D01*
G75*
G02*
X147294000Y-102034000I-125000J0D01*
G01*
X146044000Y-102034000D01*
G75*
G02*
X145919000Y-101909000I0J125000D01*
G01*
X145919000Y-101659000D01*
G75*
G02*
X146044000Y-101534000I125000J0D01*
G01*
X147294000Y-101534000D01*
G75*
G02*
X147419000Y-101659000I0J-125000D01*
G01*
G37*
G36*
G01*
X147419000Y-100859000D02*
X147419000Y-101109000D01*
G75*
G02*
X147294000Y-101234000I-125000J0D01*
G01*
X146044000Y-101234000D01*
G75*
G02*
X145919000Y-101109000I0J125000D01*
G01*
X145919000Y-100859000D01*
G75*
G02*
X146044000Y-100734000I125000J0D01*
G01*
X147294000Y-100734000D01*
G75*
G02*
X147419000Y-100859000I0J-125000D01*
G01*
G37*
G36*
G01*
X147419000Y-100059000D02*
X147419000Y-100309000D01*
G75*
G02*
X147294000Y-100434000I-125000J0D01*
G01*
X146044000Y-100434000D01*
G75*
G02*
X145919000Y-100309000I0J125000D01*
G01*
X145919000Y-100059000D01*
G75*
G02*
X146044000Y-99934000I125000J0D01*
G01*
X147294000Y-99934000D01*
G75*
G02*
X147419000Y-100059000I0J-125000D01*
G01*
G37*
G36*
G01*
X147419000Y-99259000D02*
X147419000Y-99509000D01*
G75*
G02*
X147294000Y-99634000I-125000J0D01*
G01*
X146044000Y-99634000D01*
G75*
G02*
X145919000Y-99509000I0J125000D01*
G01*
X145919000Y-99259000D01*
G75*
G02*
X146044000Y-99134000I125000J0D01*
G01*
X147294000Y-99134000D01*
G75*
G02*
X147419000Y-99259000I0J-125000D01*
G01*
G37*
G36*
G01*
X147419000Y-98459000D02*
X147419000Y-98709000D01*
G75*
G02*
X147294000Y-98834000I-125000J0D01*
G01*
X146044000Y-98834000D01*
G75*
G02*
X145919000Y-98709000I0J125000D01*
G01*
X145919000Y-98459000D01*
G75*
G02*
X146044000Y-98334000I125000J0D01*
G01*
X147294000Y-98334000D01*
G75*
G02*
X147419000Y-98459000I0J-125000D01*
G01*
G37*
G36*
G01*
X147419000Y-97659000D02*
X147419000Y-97909000D01*
G75*
G02*
X147294000Y-98034000I-125000J0D01*
G01*
X146044000Y-98034000D01*
G75*
G02*
X145919000Y-97909000I0J125000D01*
G01*
X145919000Y-97659000D01*
G75*
G02*
X146044000Y-97534000I125000J0D01*
G01*
X147294000Y-97534000D01*
G75*
G02*
X147419000Y-97659000I0J-125000D01*
G01*
G37*
%TD*%
D16*
%TO.C,J2*%
X150622000Y-99758000D03*
X150622000Y-97758000D03*
D17*
X150622000Y-95758000D03*
%TD*%
D16*
%TO.C,J1*%
X150622000Y-90773500D03*
D17*
X150622000Y-92773500D03*
%TD*%
D19*
%TO.C,U2*%
X146227800Y-89014300D03*
X146227800Y-91554300D03*
X146227800Y-94094300D03*
D20*
X138597800Y-93994300D03*
X138597800Y-91454300D03*
D21*
X138597800Y-88914300D03*
%TD*%
M02*
