%TF.GenerationSoftware,KiCad,Pcbnew,(5.1.10-1-10_14)*%
%TF.CreationDate,2021-09-29T22:20:09+09:00*%
%TF.ProjectId,seamal,7365616d-616c-42e6-9b69-6361645f7063,rev?*%
%TF.SameCoordinates,Original*%
%TF.FileFunction,Soldermask,Bot*%
%TF.FilePolarity,Negative*%
%FSLAX46Y46*%
G04 Gerber Fmt 4.6, Leading zero omitted, Abs format (unit mm)*
G04 Created by KiCad (PCBNEW (5.1.10-1-10_14)) date 2021-09-29 22:20:09*
%MOMM*%
%LPD*%
G01*
G04 APERTURE LIST*
%ADD10C,0.100000*%
%ADD11R,2.180000X1.720000*%
%ADD12R,0.270000X1.399999*%
%ADD13O,1.350000X1.350000*%
%ADD14R,1.350000X1.350000*%
%ADD15R,1.270000X0.760000*%
%ADD16C,1.700000*%
%ADD17O,1.700000X1.700000*%
%ADD18R,1.700000X1.700000*%
G04 APERTURE END LIST*
D10*
%TO.C,U3*%
G36*
X141696100Y-91151500D02*
G01*
X141696100Y-92998500D01*
X142255900Y-92998500D01*
X142255900Y-91151500D01*
X141696100Y-91151500D01*
G37*
X141696100Y-91151500D02*
X141696100Y-92998500D01*
X142255900Y-92998500D01*
X142255900Y-91151500D01*
X141696100Y-91151500D01*
G36*
X142655900Y-91151500D02*
G01*
X142655900Y-92998500D01*
X143043300Y-92998500D01*
X143043300Y-91151500D01*
X142655900Y-91151500D01*
G37*
X142655900Y-91151500D02*
X142655900Y-92998500D01*
X143043300Y-92998500D01*
X143043300Y-91151500D01*
X142655900Y-91151500D01*
G36*
X143443300Y-91151500D02*
G01*
X143443300Y-92998500D01*
X144003100Y-92998500D01*
X144003100Y-91151500D01*
X143443300Y-91151500D01*
G37*
X143443300Y-91151500D02*
X143443300Y-92998500D01*
X144003100Y-92998500D01*
X144003100Y-91151500D01*
X143443300Y-91151500D01*
G36*
X141696100Y-91151500D02*
G01*
X141696100Y-91481300D01*
X144003100Y-91481300D01*
X144003100Y-91151500D01*
X141696100Y-91151500D01*
G37*
X141696100Y-91151500D02*
X141696100Y-91481300D01*
X144003100Y-91481300D01*
X144003100Y-91151500D01*
X141696100Y-91151500D01*
G36*
X141696100Y-92268700D02*
G01*
X141696100Y-91881300D01*
X144003100Y-91881300D01*
X144003100Y-92268700D01*
X141696100Y-92268700D01*
G37*
X141696100Y-92268700D02*
X141696100Y-91881300D01*
X144003100Y-91881300D01*
X144003100Y-92268700D01*
X141696100Y-92268700D01*
G36*
X141696100Y-92668700D02*
G01*
X141696100Y-92998500D01*
X144003100Y-92998500D01*
X144003100Y-92668700D01*
X141696100Y-92668700D01*
G37*
X141696100Y-92668700D02*
X141696100Y-92998500D01*
X144003100Y-92998500D01*
X144003100Y-92668700D01*
X141696100Y-92668700D01*
%TD*%
D11*
%TO.C,U3*%
X142849600Y-92075000D03*
D12*
X141849599Y-94249999D03*
X142349601Y-94249999D03*
X142849600Y-94249999D03*
X143349599Y-94249999D03*
X143849601Y-94249999D03*
X143849601Y-89900001D03*
X143349599Y-89900001D03*
X142849600Y-89900001D03*
X142349601Y-89900001D03*
X141849599Y-89900001D03*
%TD*%
%TO.C,Motor*%
G36*
G01*
X150107600Y-85794001D02*
X150107600Y-84893999D01*
G75*
G02*
X150357599Y-84644000I249999J0D01*
G01*
X151057601Y-84644000D01*
G75*
G02*
X151307600Y-84893999I0J-249999D01*
G01*
X151307600Y-85794001D01*
G75*
G02*
X151057601Y-86044000I-249999J0D01*
G01*
X150357599Y-86044000D01*
G75*
G02*
X150107600Y-85794001I0J249999D01*
G01*
G37*
G36*
G01*
X148107600Y-85794001D02*
X148107600Y-84893999D01*
G75*
G02*
X148357599Y-84644000I249999J0D01*
G01*
X149057601Y-84644000D01*
G75*
G02*
X149307600Y-84893999I0J-249999D01*
G01*
X149307600Y-85794001D01*
G75*
G02*
X149057601Y-86044000I-249999J0D01*
G01*
X148357599Y-86044000D01*
G75*
G02*
X148107600Y-85794001I0J249999D01*
G01*
G37*
%TD*%
%TO.C,BT1*%
G36*
G01*
X149815600Y-87738799D02*
X149815600Y-88638801D01*
G75*
G02*
X149565601Y-88888800I-249999J0D01*
G01*
X148865599Y-88888800D01*
G75*
G02*
X148615600Y-88638801I0J249999D01*
G01*
X148615600Y-87738799D01*
G75*
G02*
X148865599Y-87488800I249999J0D01*
G01*
X149565601Y-87488800D01*
G75*
G02*
X149815600Y-87738799I0J-249999D01*
G01*
G37*
G36*
G01*
X151815600Y-87738799D02*
X151815600Y-88638801D01*
G75*
G02*
X151565601Y-88888800I-249999J0D01*
G01*
X150865599Y-88888800D01*
G75*
G02*
X150615600Y-88638801I0J249999D01*
G01*
X150615600Y-87738799D01*
G75*
G02*
X150865599Y-87488800I249999J0D01*
G01*
X151565601Y-87488800D01*
G75*
G02*
X151815600Y-87738799I0J-249999D01*
G01*
G37*
%TD*%
D13*
%TO.C,J3*%
X150622000Y-104806500D03*
D14*
X150622000Y-102806500D03*
%TD*%
D15*
%TO.C,SW2*%
X145948400Y-85826600D03*
X138328400Y-87096600D03*
X145948400Y-87096600D03*
X138328400Y-85826600D03*
%TD*%
%TO.C,U1*%
G36*
G01*
X145544000Y-95784000D02*
X145544000Y-97034000D01*
G75*
G02*
X145419000Y-97159000I-125000J0D01*
G01*
X145169000Y-97159000D01*
G75*
G02*
X145044000Y-97034000I0J125000D01*
G01*
X145044000Y-95784000D01*
G75*
G02*
X145169000Y-95659000I125000J0D01*
G01*
X145419000Y-95659000D01*
G75*
G02*
X145544000Y-95784000I0J-125000D01*
G01*
G37*
G36*
G01*
X144744000Y-95784000D02*
X144744000Y-97034000D01*
G75*
G02*
X144619000Y-97159000I-125000J0D01*
G01*
X144369000Y-97159000D01*
G75*
G02*
X144244000Y-97034000I0J125000D01*
G01*
X144244000Y-95784000D01*
G75*
G02*
X144369000Y-95659000I125000J0D01*
G01*
X144619000Y-95659000D01*
G75*
G02*
X144744000Y-95784000I0J-125000D01*
G01*
G37*
G36*
G01*
X143944000Y-95784000D02*
X143944000Y-97034000D01*
G75*
G02*
X143819000Y-97159000I-125000J0D01*
G01*
X143569000Y-97159000D01*
G75*
G02*
X143444000Y-97034000I0J125000D01*
G01*
X143444000Y-95784000D01*
G75*
G02*
X143569000Y-95659000I125000J0D01*
G01*
X143819000Y-95659000D01*
G75*
G02*
X143944000Y-95784000I0J-125000D01*
G01*
G37*
G36*
G01*
X143144000Y-95784000D02*
X143144000Y-97034000D01*
G75*
G02*
X143019000Y-97159000I-125000J0D01*
G01*
X142769000Y-97159000D01*
G75*
G02*
X142644000Y-97034000I0J125000D01*
G01*
X142644000Y-95784000D01*
G75*
G02*
X142769000Y-95659000I125000J0D01*
G01*
X143019000Y-95659000D01*
G75*
G02*
X143144000Y-95784000I0J-125000D01*
G01*
G37*
G36*
G01*
X142344000Y-95784000D02*
X142344000Y-97034000D01*
G75*
G02*
X142219000Y-97159000I-125000J0D01*
G01*
X141969000Y-97159000D01*
G75*
G02*
X141844000Y-97034000I0J125000D01*
G01*
X141844000Y-95784000D01*
G75*
G02*
X141969000Y-95659000I125000J0D01*
G01*
X142219000Y-95659000D01*
G75*
G02*
X142344000Y-95784000I0J-125000D01*
G01*
G37*
G36*
G01*
X141544000Y-95784000D02*
X141544000Y-97034000D01*
G75*
G02*
X141419000Y-97159000I-125000J0D01*
G01*
X141169000Y-97159000D01*
G75*
G02*
X141044000Y-97034000I0J125000D01*
G01*
X141044000Y-95784000D01*
G75*
G02*
X141169000Y-95659000I125000J0D01*
G01*
X141419000Y-95659000D01*
G75*
G02*
X141544000Y-95784000I0J-125000D01*
G01*
G37*
G36*
G01*
X140744000Y-95784000D02*
X140744000Y-97034000D01*
G75*
G02*
X140619000Y-97159000I-125000J0D01*
G01*
X140369000Y-97159000D01*
G75*
G02*
X140244000Y-97034000I0J125000D01*
G01*
X140244000Y-95784000D01*
G75*
G02*
X140369000Y-95659000I125000J0D01*
G01*
X140619000Y-95659000D01*
G75*
G02*
X140744000Y-95784000I0J-125000D01*
G01*
G37*
G36*
G01*
X139944000Y-95784000D02*
X139944000Y-97034000D01*
G75*
G02*
X139819000Y-97159000I-125000J0D01*
G01*
X139569000Y-97159000D01*
G75*
G02*
X139444000Y-97034000I0J125000D01*
G01*
X139444000Y-95784000D01*
G75*
G02*
X139569000Y-95659000I125000J0D01*
G01*
X139819000Y-95659000D01*
G75*
G02*
X139944000Y-95784000I0J-125000D01*
G01*
G37*
G36*
G01*
X139069000Y-97659000D02*
X139069000Y-97909000D01*
G75*
G02*
X138944000Y-98034000I-125000J0D01*
G01*
X137694000Y-98034000D01*
G75*
G02*
X137569000Y-97909000I0J125000D01*
G01*
X137569000Y-97659000D01*
G75*
G02*
X137694000Y-97534000I125000J0D01*
G01*
X138944000Y-97534000D01*
G75*
G02*
X139069000Y-97659000I0J-125000D01*
G01*
G37*
G36*
G01*
X139069000Y-98459000D02*
X139069000Y-98709000D01*
G75*
G02*
X138944000Y-98834000I-125000J0D01*
G01*
X137694000Y-98834000D01*
G75*
G02*
X137569000Y-98709000I0J125000D01*
G01*
X137569000Y-98459000D01*
G75*
G02*
X137694000Y-98334000I125000J0D01*
G01*
X138944000Y-98334000D01*
G75*
G02*
X139069000Y-98459000I0J-125000D01*
G01*
G37*
G36*
G01*
X139069000Y-99259000D02*
X139069000Y-99509000D01*
G75*
G02*
X138944000Y-99634000I-125000J0D01*
G01*
X137694000Y-99634000D01*
G75*
G02*
X137569000Y-99509000I0J125000D01*
G01*
X137569000Y-99259000D01*
G75*
G02*
X137694000Y-99134000I125000J0D01*
G01*
X138944000Y-99134000D01*
G75*
G02*
X139069000Y-99259000I0J-125000D01*
G01*
G37*
G36*
G01*
X139069000Y-100059000D02*
X139069000Y-100309000D01*
G75*
G02*
X138944000Y-100434000I-125000J0D01*
G01*
X137694000Y-100434000D01*
G75*
G02*
X137569000Y-100309000I0J125000D01*
G01*
X137569000Y-100059000D01*
G75*
G02*
X137694000Y-99934000I125000J0D01*
G01*
X138944000Y-99934000D01*
G75*
G02*
X139069000Y-100059000I0J-125000D01*
G01*
G37*
G36*
G01*
X139069000Y-100859000D02*
X139069000Y-101109000D01*
G75*
G02*
X138944000Y-101234000I-125000J0D01*
G01*
X137694000Y-101234000D01*
G75*
G02*
X137569000Y-101109000I0J125000D01*
G01*
X137569000Y-100859000D01*
G75*
G02*
X137694000Y-100734000I125000J0D01*
G01*
X138944000Y-100734000D01*
G75*
G02*
X139069000Y-100859000I0J-125000D01*
G01*
G37*
G36*
G01*
X139069000Y-101659000D02*
X139069000Y-101909000D01*
G75*
G02*
X138944000Y-102034000I-125000J0D01*
G01*
X137694000Y-102034000D01*
G75*
G02*
X137569000Y-101909000I0J125000D01*
G01*
X137569000Y-101659000D01*
G75*
G02*
X137694000Y-101534000I125000J0D01*
G01*
X138944000Y-101534000D01*
G75*
G02*
X139069000Y-101659000I0J-125000D01*
G01*
G37*
G36*
G01*
X139069000Y-102459000D02*
X139069000Y-102709000D01*
G75*
G02*
X138944000Y-102834000I-125000J0D01*
G01*
X137694000Y-102834000D01*
G75*
G02*
X137569000Y-102709000I0J125000D01*
G01*
X137569000Y-102459000D01*
G75*
G02*
X137694000Y-102334000I125000J0D01*
G01*
X138944000Y-102334000D01*
G75*
G02*
X139069000Y-102459000I0J-125000D01*
G01*
G37*
G36*
G01*
X139069000Y-103259000D02*
X139069000Y-103509000D01*
G75*
G02*
X138944000Y-103634000I-125000J0D01*
G01*
X137694000Y-103634000D01*
G75*
G02*
X137569000Y-103509000I0J125000D01*
G01*
X137569000Y-103259000D01*
G75*
G02*
X137694000Y-103134000I125000J0D01*
G01*
X138944000Y-103134000D01*
G75*
G02*
X139069000Y-103259000I0J-125000D01*
G01*
G37*
G36*
G01*
X139944000Y-104134000D02*
X139944000Y-105384000D01*
G75*
G02*
X139819000Y-105509000I-125000J0D01*
G01*
X139569000Y-105509000D01*
G75*
G02*
X139444000Y-105384000I0J125000D01*
G01*
X139444000Y-104134000D01*
G75*
G02*
X139569000Y-104009000I125000J0D01*
G01*
X139819000Y-104009000D01*
G75*
G02*
X139944000Y-104134000I0J-125000D01*
G01*
G37*
G36*
G01*
X140744000Y-104134000D02*
X140744000Y-105384000D01*
G75*
G02*
X140619000Y-105509000I-125000J0D01*
G01*
X140369000Y-105509000D01*
G75*
G02*
X140244000Y-105384000I0J125000D01*
G01*
X140244000Y-104134000D01*
G75*
G02*
X140369000Y-104009000I125000J0D01*
G01*
X140619000Y-104009000D01*
G75*
G02*
X140744000Y-104134000I0J-125000D01*
G01*
G37*
G36*
G01*
X141544000Y-104134000D02*
X141544000Y-105384000D01*
G75*
G02*
X141419000Y-105509000I-125000J0D01*
G01*
X141169000Y-105509000D01*
G75*
G02*
X141044000Y-105384000I0J125000D01*
G01*
X141044000Y-104134000D01*
G75*
G02*
X141169000Y-104009000I125000J0D01*
G01*
X141419000Y-104009000D01*
G75*
G02*
X141544000Y-104134000I0J-125000D01*
G01*
G37*
G36*
G01*
X142344000Y-104134000D02*
X142344000Y-105384000D01*
G75*
G02*
X142219000Y-105509000I-125000J0D01*
G01*
X141969000Y-105509000D01*
G75*
G02*
X141844000Y-105384000I0J125000D01*
G01*
X141844000Y-104134000D01*
G75*
G02*
X141969000Y-104009000I125000J0D01*
G01*
X142219000Y-104009000D01*
G75*
G02*
X142344000Y-104134000I0J-125000D01*
G01*
G37*
G36*
G01*
X143144000Y-104134000D02*
X143144000Y-105384000D01*
G75*
G02*
X143019000Y-105509000I-125000J0D01*
G01*
X142769000Y-105509000D01*
G75*
G02*
X142644000Y-105384000I0J125000D01*
G01*
X142644000Y-104134000D01*
G75*
G02*
X142769000Y-104009000I125000J0D01*
G01*
X143019000Y-104009000D01*
G75*
G02*
X143144000Y-104134000I0J-125000D01*
G01*
G37*
G36*
G01*
X143944000Y-104134000D02*
X143944000Y-105384000D01*
G75*
G02*
X143819000Y-105509000I-125000J0D01*
G01*
X143569000Y-105509000D01*
G75*
G02*
X143444000Y-105384000I0J125000D01*
G01*
X143444000Y-104134000D01*
G75*
G02*
X143569000Y-104009000I125000J0D01*
G01*
X143819000Y-104009000D01*
G75*
G02*
X143944000Y-104134000I0J-125000D01*
G01*
G37*
G36*
G01*
X144744000Y-104134000D02*
X144744000Y-105384000D01*
G75*
G02*
X144619000Y-105509000I-125000J0D01*
G01*
X144369000Y-105509000D01*
G75*
G02*
X144244000Y-105384000I0J125000D01*
G01*
X144244000Y-104134000D01*
G75*
G02*
X144369000Y-104009000I125000J0D01*
G01*
X144619000Y-104009000D01*
G75*
G02*
X144744000Y-104134000I0J-125000D01*
G01*
G37*
G36*
G01*
X145544000Y-104134000D02*
X145544000Y-105384000D01*
G75*
G02*
X145419000Y-105509000I-125000J0D01*
G01*
X145169000Y-105509000D01*
G75*
G02*
X145044000Y-105384000I0J125000D01*
G01*
X145044000Y-104134000D01*
G75*
G02*
X145169000Y-104009000I125000J0D01*
G01*
X145419000Y-104009000D01*
G75*
G02*
X145544000Y-104134000I0J-125000D01*
G01*
G37*
G36*
G01*
X147419000Y-103259000D02*
X147419000Y-103509000D01*
G75*
G02*
X147294000Y-103634000I-125000J0D01*
G01*
X146044000Y-103634000D01*
G75*
G02*
X145919000Y-103509000I0J125000D01*
G01*
X145919000Y-103259000D01*
G75*
G02*
X146044000Y-103134000I125000J0D01*
G01*
X147294000Y-103134000D01*
G75*
G02*
X147419000Y-103259000I0J-125000D01*
G01*
G37*
G36*
G01*
X147419000Y-102459000D02*
X147419000Y-102709000D01*
G75*
G02*
X147294000Y-102834000I-125000J0D01*
G01*
X146044000Y-102834000D01*
G75*
G02*
X145919000Y-102709000I0J125000D01*
G01*
X145919000Y-102459000D01*
G75*
G02*
X146044000Y-102334000I125000J0D01*
G01*
X147294000Y-102334000D01*
G75*
G02*
X147419000Y-102459000I0J-125000D01*
G01*
G37*
G36*
G01*
X147419000Y-101659000D02*
X147419000Y-101909000D01*
G75*
G02*
X147294000Y-102034000I-125000J0D01*
G01*
X146044000Y-102034000D01*
G75*
G02*
X145919000Y-101909000I0J125000D01*
G01*
X145919000Y-101659000D01*
G75*
G02*
X146044000Y-101534000I125000J0D01*
G01*
X147294000Y-101534000D01*
G75*
G02*
X147419000Y-101659000I0J-125000D01*
G01*
G37*
G36*
G01*
X147419000Y-100859000D02*
X147419000Y-101109000D01*
G75*
G02*
X147294000Y-101234000I-125000J0D01*
G01*
X146044000Y-101234000D01*
G75*
G02*
X145919000Y-101109000I0J125000D01*
G01*
X145919000Y-100859000D01*
G75*
G02*
X146044000Y-100734000I125000J0D01*
G01*
X147294000Y-100734000D01*
G75*
G02*
X147419000Y-100859000I0J-125000D01*
G01*
G37*
G36*
G01*
X147419000Y-100059000D02*
X147419000Y-100309000D01*
G75*
G02*
X147294000Y-100434000I-125000J0D01*
G01*
X146044000Y-100434000D01*
G75*
G02*
X145919000Y-100309000I0J125000D01*
G01*
X145919000Y-100059000D01*
G75*
G02*
X146044000Y-99934000I125000J0D01*
G01*
X147294000Y-99934000D01*
G75*
G02*
X147419000Y-100059000I0J-125000D01*
G01*
G37*
G36*
G01*
X147419000Y-99259000D02*
X147419000Y-99509000D01*
G75*
G02*
X147294000Y-99634000I-125000J0D01*
G01*
X146044000Y-99634000D01*
G75*
G02*
X145919000Y-99509000I0J125000D01*
G01*
X145919000Y-99259000D01*
G75*
G02*
X146044000Y-99134000I125000J0D01*
G01*
X147294000Y-99134000D01*
G75*
G02*
X147419000Y-99259000I0J-125000D01*
G01*
G37*
G36*
G01*
X147419000Y-98459000D02*
X147419000Y-98709000D01*
G75*
G02*
X147294000Y-98834000I-125000J0D01*
G01*
X146044000Y-98834000D01*
G75*
G02*
X145919000Y-98709000I0J125000D01*
G01*
X145919000Y-98459000D01*
G75*
G02*
X146044000Y-98334000I125000J0D01*
G01*
X147294000Y-98334000D01*
G75*
G02*
X147419000Y-98459000I0J-125000D01*
G01*
G37*
G36*
G01*
X147419000Y-97659000D02*
X147419000Y-97909000D01*
G75*
G02*
X147294000Y-98034000I-125000J0D01*
G01*
X146044000Y-98034000D01*
G75*
G02*
X145919000Y-97909000I0J125000D01*
G01*
X145919000Y-97659000D01*
G75*
G02*
X146044000Y-97534000I125000J0D01*
G01*
X147294000Y-97534000D01*
G75*
G02*
X147419000Y-97659000I0J-125000D01*
G01*
G37*
%TD*%
D13*
%TO.C,J2*%
X150622000Y-99758000D03*
X150622000Y-97758000D03*
D14*
X150622000Y-95758000D03*
%TD*%
D13*
%TO.C,J1*%
X150622000Y-90773500D03*
D14*
X150622000Y-92773500D03*
%TD*%
D16*
%TO.C,U2*%
X146227800Y-89014300D03*
X146227800Y-91554300D03*
X146227800Y-94094300D03*
D17*
X138597800Y-93994300D03*
X138597800Y-91454300D03*
D18*
X138597800Y-88914300D03*
%TD*%
M02*
