%TF.GenerationSoftware,KiCad,Pcbnew,(5.1.10-1-10_14)*%
%TF.CreationDate,2021-09-29T22:20:09+09:00*%
%TF.ProjectId,seamal,7365616d-616c-42e6-9b69-6361645f7063,rev?*%
%TF.SameCoordinates,Original*%
%TF.FileFunction,Soldermask,Top*%
%TF.FilePolarity,Negative*%
%FSLAX46Y46*%
G04 Gerber Fmt 4.6, Leading zero omitted, Abs format (unit mm)*
G04 Created by KiCad (PCBNEW (5.1.10-1-10_14)) date 2021-09-29 22:20:09*
%MOMM*%
%LPD*%
G01*
G04 APERTURE LIST*
%ADD10C,0.150000*%
%ADD11C,0.080000*%
%ADD12R,0.900000X0.700000*%
%ADD13R,0.600000X0.510000*%
%ADD14O,1.350000X1.350000*%
%ADD15R,1.350000X1.350000*%
%ADD16C,1.700000*%
%ADD17O,1.700000X1.700000*%
%ADD18R,1.700000X1.700000*%
G04 APERTURE END LIST*
%TO.C,U1*%
D10*
X143128904Y-99782380D02*
X143128904Y-100591904D01*
X143081285Y-100687142D01*
X143033666Y-100734761D01*
X142938428Y-100782380D01*
X142747952Y-100782380D01*
X142652714Y-100734761D01*
X142605095Y-100687142D01*
X142557476Y-100591904D01*
X142557476Y-99782380D01*
X141557476Y-100782380D02*
X142128904Y-100782380D01*
X141843190Y-100782380D02*
X141843190Y-99782380D01*
X141938428Y-99925238D01*
X142033666Y-100020476D01*
X142128904Y-100068095D01*
%TO.C,J2*%
X152828666Y-96035880D02*
X152828666Y-96750166D01*
X152781047Y-96893023D01*
X152685809Y-96988261D01*
X152542952Y-97035880D01*
X152447714Y-97035880D01*
X153257238Y-96131119D02*
X153304857Y-96083500D01*
X153400095Y-96035880D01*
X153638190Y-96035880D01*
X153733428Y-96083500D01*
X153781047Y-96131119D01*
X153828666Y-96226357D01*
X153828666Y-96321595D01*
X153781047Y-96464452D01*
X153209619Y-97035880D01*
X153828666Y-97035880D01*
X152677880Y-98631333D02*
X153392166Y-98631333D01*
X153535023Y-98678952D01*
X153630261Y-98774190D01*
X153677880Y-98917047D01*
X153677880Y-99012285D01*
X152773119Y-98202761D02*
X152725500Y-98155142D01*
X152677880Y-98059904D01*
X152677880Y-97821809D01*
X152725500Y-97726571D01*
X152773119Y-97678952D01*
X152868357Y-97631333D01*
X152963595Y-97631333D01*
X153106452Y-97678952D01*
X153677880Y-98250380D01*
X153677880Y-97631333D01*
%TO.C,J1*%
X152892166Y-92987880D02*
X152892166Y-93702166D01*
X152844547Y-93845023D01*
X152749309Y-93940261D01*
X152606452Y-93987880D01*
X152511214Y-93987880D01*
X153892166Y-93987880D02*
X153320738Y-93987880D01*
X153606452Y-93987880D02*
X153606452Y-92987880D01*
X153511214Y-93130738D01*
X153415976Y-93225976D01*
X153320738Y-93273595D01*
X152360380Y-92090833D02*
X153074666Y-92090833D01*
X153217523Y-92138452D01*
X153312761Y-92233690D01*
X153360380Y-92376547D01*
X153360380Y-92471785D01*
X153360380Y-91090833D02*
X153360380Y-91662261D01*
X153360380Y-91376547D02*
X152360380Y-91376547D01*
X152503238Y-91471785D01*
X152598476Y-91567023D01*
X152646095Y-91662261D01*
%TO.C,R4*%
D11*
X142537666Y-88491190D02*
X142371000Y-88253095D01*
X142251952Y-88491190D02*
X142251952Y-87991190D01*
X142442428Y-87991190D01*
X142490047Y-88015000D01*
X142513857Y-88038809D01*
X142537666Y-88086428D01*
X142537666Y-88157857D01*
X142513857Y-88205476D01*
X142490047Y-88229285D01*
X142442428Y-88253095D01*
X142251952Y-88253095D01*
X142966238Y-88157857D02*
X142966238Y-88491190D01*
X142847190Y-87967380D02*
X142728142Y-88324523D01*
X143037666Y-88324523D01*
%TO.C,R3*%
X146855666Y-105128190D02*
X146689000Y-104890095D01*
X146569952Y-105128190D02*
X146569952Y-104628190D01*
X146760428Y-104628190D01*
X146808047Y-104652000D01*
X146831857Y-104675809D01*
X146855666Y-104723428D01*
X146855666Y-104794857D01*
X146831857Y-104842476D01*
X146808047Y-104866285D01*
X146760428Y-104890095D01*
X146569952Y-104890095D01*
X147022333Y-104628190D02*
X147331857Y-104628190D01*
X147165190Y-104818666D01*
X147236619Y-104818666D01*
X147284238Y-104842476D01*
X147308047Y-104866285D01*
X147331857Y-104913904D01*
X147331857Y-105032952D01*
X147308047Y-105080571D01*
X147284238Y-105104380D01*
X147236619Y-105128190D01*
X147093761Y-105128190D01*
X147046142Y-105104380D01*
X147022333Y-105080571D01*
%TO.C,R2*%
X142537666Y-89253190D02*
X142371000Y-89015095D01*
X142251952Y-89253190D02*
X142251952Y-88753190D01*
X142442428Y-88753190D01*
X142490047Y-88777000D01*
X142513857Y-88800809D01*
X142537666Y-88848428D01*
X142537666Y-88919857D01*
X142513857Y-88967476D01*
X142490047Y-88991285D01*
X142442428Y-89015095D01*
X142251952Y-89015095D01*
X142728142Y-88800809D02*
X142751952Y-88777000D01*
X142799571Y-88753190D01*
X142918619Y-88753190D01*
X142966238Y-88777000D01*
X142990047Y-88800809D01*
X143013857Y-88848428D01*
X143013857Y-88896047D01*
X142990047Y-88967476D01*
X142704333Y-89253190D01*
X143013857Y-89253190D01*
%TO.C,R1*%
X142563066Y-94155390D02*
X142396400Y-93917295D01*
X142277352Y-94155390D02*
X142277352Y-93655390D01*
X142467828Y-93655390D01*
X142515447Y-93679200D01*
X142539257Y-93703009D01*
X142563066Y-93750628D01*
X142563066Y-93822057D01*
X142539257Y-93869676D01*
X142515447Y-93893485D01*
X142467828Y-93917295D01*
X142277352Y-93917295D01*
X143039257Y-94155390D02*
X142753542Y-94155390D01*
X142896400Y-94155390D02*
X142896400Y-93655390D01*
X142848780Y-93726819D01*
X142801161Y-93774438D01*
X142753542Y-93798247D01*
%TD*%
D12*
%TO.C,S1*%
X145479000Y-85576500D03*
X151479000Y-85576500D03*
D13*
X149479000Y-86931500D03*
X147479000Y-86931500D03*
X148479000Y-86931500D03*
%TD*%
%TO.C,U4*%
G36*
G01*
X139846400Y-101831000D02*
X139846400Y-102131000D01*
G75*
G02*
X139696400Y-102281000I-150000J0D01*
G01*
X138396400Y-102281000D01*
G75*
G02*
X138246400Y-102131000I0J150000D01*
G01*
X138246400Y-101831000D01*
G75*
G02*
X138396400Y-101681000I150000J0D01*
G01*
X139696400Y-101681000D01*
G75*
G02*
X139846400Y-101831000I0J-150000D01*
G01*
G37*
G36*
G01*
X139846400Y-100561000D02*
X139846400Y-100861000D01*
G75*
G02*
X139696400Y-101011000I-150000J0D01*
G01*
X138396400Y-101011000D01*
G75*
G02*
X138246400Y-100861000I0J150000D01*
G01*
X138246400Y-100561000D01*
G75*
G02*
X138396400Y-100411000I150000J0D01*
G01*
X139696400Y-100411000D01*
G75*
G02*
X139846400Y-100561000I0J-150000D01*
G01*
G37*
G36*
G01*
X139846400Y-99291000D02*
X139846400Y-99591000D01*
G75*
G02*
X139696400Y-99741000I-150000J0D01*
G01*
X138396400Y-99741000D01*
G75*
G02*
X138246400Y-99591000I0J150000D01*
G01*
X138246400Y-99291000D01*
G75*
G02*
X138396400Y-99141000I150000J0D01*
G01*
X139696400Y-99141000D01*
G75*
G02*
X139846400Y-99291000I0J-150000D01*
G01*
G37*
G36*
G01*
X139846400Y-98021000D02*
X139846400Y-98321000D01*
G75*
G02*
X139696400Y-98471000I-150000J0D01*
G01*
X138396400Y-98471000D01*
G75*
G02*
X138246400Y-98321000I0J150000D01*
G01*
X138246400Y-98021000D01*
G75*
G02*
X138396400Y-97871000I150000J0D01*
G01*
X139696400Y-97871000D01*
G75*
G02*
X139846400Y-98021000I0J-150000D01*
G01*
G37*
G36*
G01*
X147046400Y-98021000D02*
X147046400Y-98321000D01*
G75*
G02*
X146896400Y-98471000I-150000J0D01*
G01*
X145596400Y-98471000D01*
G75*
G02*
X145446400Y-98321000I0J150000D01*
G01*
X145446400Y-98021000D01*
G75*
G02*
X145596400Y-97871000I150000J0D01*
G01*
X146896400Y-97871000D01*
G75*
G02*
X147046400Y-98021000I0J-150000D01*
G01*
G37*
G36*
G01*
X147046400Y-99291000D02*
X147046400Y-99591000D01*
G75*
G02*
X146896400Y-99741000I-150000J0D01*
G01*
X145596400Y-99741000D01*
G75*
G02*
X145446400Y-99591000I0J150000D01*
G01*
X145446400Y-99291000D01*
G75*
G02*
X145596400Y-99141000I150000J0D01*
G01*
X146896400Y-99141000D01*
G75*
G02*
X147046400Y-99291000I0J-150000D01*
G01*
G37*
G36*
G01*
X147046400Y-100561000D02*
X147046400Y-100861000D01*
G75*
G02*
X146896400Y-101011000I-150000J0D01*
G01*
X145596400Y-101011000D01*
G75*
G02*
X145446400Y-100861000I0J150000D01*
G01*
X145446400Y-100561000D01*
G75*
G02*
X145596400Y-100411000I150000J0D01*
G01*
X146896400Y-100411000D01*
G75*
G02*
X147046400Y-100561000I0J-150000D01*
G01*
G37*
G36*
G01*
X147046400Y-101831000D02*
X147046400Y-102131000D01*
G75*
G02*
X146896400Y-102281000I-150000J0D01*
G01*
X145596400Y-102281000D01*
G75*
G02*
X145446400Y-102131000I0J150000D01*
G01*
X145446400Y-101831000D01*
G75*
G02*
X145596400Y-101681000I150000J0D01*
G01*
X146896400Y-101681000D01*
G75*
G02*
X147046400Y-101831000I0J-150000D01*
G01*
G37*
%TD*%
D14*
%TO.C,J3*%
X150622000Y-104806500D03*
D15*
X150622000Y-102806500D03*
%TD*%
D14*
%TO.C,J2*%
X150622000Y-99758000D03*
X150622000Y-97758000D03*
D15*
X150622000Y-95758000D03*
%TD*%
D14*
%TO.C,J1*%
X150622000Y-90773500D03*
D15*
X150622000Y-92773500D03*
%TD*%
%TO.C,D2*%
G36*
G01*
X144402000Y-104715300D02*
X144402000Y-105190300D01*
G75*
G02*
X144164500Y-105427800I-237500J0D01*
G01*
X143589500Y-105427800D01*
G75*
G02*
X143352000Y-105190300I0J237500D01*
G01*
X143352000Y-104715300D01*
G75*
G02*
X143589500Y-104477800I237500J0D01*
G01*
X144164500Y-104477800D01*
G75*
G02*
X144402000Y-104715300I0J-237500D01*
G01*
G37*
G36*
G01*
X142652000Y-104715300D02*
X142652000Y-105190300D01*
G75*
G02*
X142414500Y-105427800I-237500J0D01*
G01*
X141839500Y-105427800D01*
G75*
G02*
X141602000Y-105190300I0J237500D01*
G01*
X141602000Y-104715300D01*
G75*
G02*
X141839500Y-104477800I237500J0D01*
G01*
X142414500Y-104477800D01*
G75*
G02*
X142652000Y-104715300I0J-237500D01*
G01*
G37*
%TD*%
%TO.C,D1*%
G36*
G01*
X137868200Y-105215700D02*
X137868200Y-104740700D01*
G75*
G02*
X138105700Y-104503200I237500J0D01*
G01*
X138680700Y-104503200D01*
G75*
G02*
X138918200Y-104740700I0J-237500D01*
G01*
X138918200Y-105215700D01*
G75*
G02*
X138680700Y-105453200I-237500J0D01*
G01*
X138105700Y-105453200D01*
G75*
G02*
X137868200Y-105215700I0J237500D01*
G01*
G37*
G36*
G01*
X139618200Y-105215700D02*
X139618200Y-104740700D01*
G75*
G02*
X139855700Y-104503200I237500J0D01*
G01*
X140430700Y-104503200D01*
G75*
G02*
X140668200Y-104740700I0J-237500D01*
G01*
X140668200Y-105215700D01*
G75*
G02*
X140430700Y-105453200I-237500J0D01*
G01*
X139855700Y-105453200D01*
G75*
G02*
X139618200Y-105215700I0J237500D01*
G01*
G37*
%TD*%
%TO.C,R4*%
G36*
G01*
X143021000Y-88715001D02*
X143021000Y-87814999D01*
G75*
G02*
X143270999Y-87565000I249999J0D01*
G01*
X143971001Y-87565000D01*
G75*
G02*
X144221000Y-87814999I0J-249999D01*
G01*
X144221000Y-88715001D01*
G75*
G02*
X143971001Y-88965000I-249999J0D01*
G01*
X143270999Y-88965000D01*
G75*
G02*
X143021000Y-88715001I0J249999D01*
G01*
G37*
G36*
G01*
X141021000Y-88715001D02*
X141021000Y-87814999D01*
G75*
G02*
X141270999Y-87565000I249999J0D01*
G01*
X141971001Y-87565000D01*
G75*
G02*
X142221000Y-87814999I0J-249999D01*
G01*
X142221000Y-88715001D01*
G75*
G02*
X141971001Y-88965000I-249999J0D01*
G01*
X141270999Y-88965000D01*
G75*
G02*
X141021000Y-88715001I0J249999D01*
G01*
G37*
%TD*%
D16*
%TO.C,U2*%
X146227800Y-89014300D03*
X146227800Y-91554300D03*
X146227800Y-94094300D03*
D17*
X138597800Y-93994300D03*
X138597800Y-91454300D03*
D18*
X138597800Y-88914300D03*
%TD*%
%TO.C,R3*%
G36*
G01*
X147339000Y-105352001D02*
X147339000Y-104451999D01*
G75*
G02*
X147588999Y-104202000I249999J0D01*
G01*
X148289001Y-104202000D01*
G75*
G02*
X148539000Y-104451999I0J-249999D01*
G01*
X148539000Y-105352001D01*
G75*
G02*
X148289001Y-105602000I-249999J0D01*
G01*
X147588999Y-105602000D01*
G75*
G02*
X147339000Y-105352001I0J249999D01*
G01*
G37*
G36*
G01*
X145339000Y-105352001D02*
X145339000Y-104451999D01*
G75*
G02*
X145588999Y-104202000I249999J0D01*
G01*
X146289001Y-104202000D01*
G75*
G02*
X146539000Y-104451999I0J-249999D01*
G01*
X146539000Y-105352001D01*
G75*
G02*
X146289001Y-105602000I-249999J0D01*
G01*
X145588999Y-105602000D01*
G75*
G02*
X145339000Y-105352001I0J249999D01*
G01*
G37*
%TD*%
%TO.C,R2*%
G36*
G01*
X143021000Y-90747001D02*
X143021000Y-89846999D01*
G75*
G02*
X143270999Y-89597000I249999J0D01*
G01*
X143971001Y-89597000D01*
G75*
G02*
X144221000Y-89846999I0J-249999D01*
G01*
X144221000Y-90747001D01*
G75*
G02*
X143971001Y-90997000I-249999J0D01*
G01*
X143270999Y-90997000D01*
G75*
G02*
X143021000Y-90747001I0J249999D01*
G01*
G37*
G36*
G01*
X141021000Y-90747001D02*
X141021000Y-89846999D01*
G75*
G02*
X141270999Y-89597000I249999J0D01*
G01*
X141971001Y-89597000D01*
G75*
G02*
X142221000Y-89846999I0J-249999D01*
G01*
X142221000Y-90747001D01*
G75*
G02*
X141971001Y-90997000I-249999J0D01*
G01*
X141270999Y-90997000D01*
G75*
G02*
X141021000Y-90747001I0J249999D01*
G01*
G37*
%TD*%
%TO.C,R1*%
G36*
G01*
X141046400Y-94379201D02*
X141046400Y-93479199D01*
G75*
G02*
X141296399Y-93229200I249999J0D01*
G01*
X141996401Y-93229200D01*
G75*
G02*
X142246400Y-93479199I0J-249999D01*
G01*
X142246400Y-94379201D01*
G75*
G02*
X141996401Y-94629200I-249999J0D01*
G01*
X141296399Y-94629200D01*
G75*
G02*
X141046400Y-94379201I0J249999D01*
G01*
G37*
G36*
G01*
X143046400Y-94379201D02*
X143046400Y-93479199D01*
G75*
G02*
X143296399Y-93229200I249999J0D01*
G01*
X143996401Y-93229200D01*
G75*
G02*
X144246400Y-93479199I0J-249999D01*
G01*
X144246400Y-94379201D01*
G75*
G02*
X143996401Y-94629200I-249999J0D01*
G01*
X143296399Y-94629200D01*
G75*
G02*
X143046400Y-94379201I0J249999D01*
G01*
G37*
%TD*%
M02*
