M48
; DRILL file {KiCad (5.1.10-1-10_14)} date Wednesday, September 29, 2021 at 10:20:39 PM
; FORMAT={-:-/ absolute / metric / decimal}
; #@! TF.CreationDate,2021-09-29T22:20:39+09:00
; #@! TF.GenerationSoftware,Kicad,Pcbnew,(5.1.10-1-10_14)
; #@! TF.FileFunction,Plated,1,2,PTH
FMAT,2
METRIC
T1C0.400
T2C0.800
T3C1.000
%
G90
G05
T1
X138.455Y-96.342
X139.129Y-96.939
X140.411Y-90.221
X140.433Y-99.978
X140.552Y-91.41
X140.831Y-97.745
X141.365Y-103.367
X142.435Y-102.905
X142.679Y-86.888
X143.035Y-101.956
X143.104Y-100.889
X143.434Y-86.208
X143.485Y-85.166
X143.718Y-99.604
X144.221Y-100.804
X144.669Y-95.158
X145.034Y-99.421
X146.756Y-96.149
X147.345Y-87.787
X147.549Y-86.055
X147.955Y-97.765
X148.031Y-98.704
X148.565Y-94.691
X149.022Y-103.505
X150.247Y-101.575
X151.028Y-86.817
T2
X150.622Y-90.773
X150.622Y-92.773
X150.622Y-95.758
X150.622Y-97.758
X150.622Y-99.758
X150.622Y-102.806
X150.622Y-104.806
T3
X138.598Y-88.914
X138.598Y-91.454
X138.598Y-93.994
X146.228Y-89.014
X146.228Y-91.554
X146.228Y-94.094
T0
M30
